<svg xmlns="http://www.w3.org/2000/svg" xmlns:xlink="http://www.w3.org/1999/xlink" width="500" zoomAndPan="magnify" viewBox="0 0 375 108.749999" height="145" preserveAspectRatio="xMidYMid meet" version="1.0"><defs><g/><clipPath id="f7bab65110"><path d="M 25.382812 26.90625 L 94.085938 26.90625 L 94.085938 85.53125 L 25.382812 85.53125 Z M 25.382812 26.90625 " clip-rule="nonzero"/></clipPath><clipPath id="2ffb98a7c4"><path d="M 94.078125 56.21875 L 77.335938 85.53125 L 42.121094 85.53125 L 25.382812 56.21875 L 42.121094 26.90625 L 77.335938 26.90625 Z M 94.078125 56.21875 " clip-rule="nonzero"/></clipPath><clipPath id="22f67c2904"><path d="M 63 0.0351562 L 67 0.0351562 L 67 4 L 63 4 Z M 63 0.0351562 " clip-rule="nonzero"/></clipPath><clipPath id="200d03b717"><path d="M 0.429688 58 L 4 58 L 4 61 L 0.429688 61 Z M 0.429688 58 " clip-rule="nonzero"/></clipPath><clipPath id="a78f3ae159"><path d="M 38.683594 34.019531 L 81.335938 34.019531 L 81.335938 76.667969 L 38.683594 76.667969 Z M 38.683594 34.019531 " clip-rule="nonzero"/></clipPath></defs><g clip-path="url(#f7bab65110)"><g clip-path="url(#2ffb98a7c4)"><path fill="#eabb9b" d="M 25.382812 26.90625 L 94.085938 26.90625 L 94.085938 85.53125 L 25.382812 85.53125 Z M 25.382812 26.90625 " fill-opacity="1" fill-rule="nonzero"/></g></g><path fill="#eabb9b" d="M 77.21875 86.476562 L 42.246094 86.476562 L 24.757812 56.1875 L 42.246094 25.898438 L 77.21875 25.898438 L 94.703125 56.1875 Z M 43.058594 85.066406 L 76.402344 85.066406 L 93.078125 56.1875 L 76.402344 27.308594 L 43.058594 27.308594 L 26.382812 56.1875 Z M 43.058594 85.066406 " fill-opacity="1" fill-rule="nonzero"/><path fill="#eabb9b" d="M 107.664062 57.417969 C 107.664062 57.417969 107.652344 57.417969 107.644531 57.417969 L 93.460938 56.773438 C 93.226562 56.761719 93.046875 56.566406 93.058594 56.332031 C 93.070312 56.101562 93.265625 55.917969 93.5 55.929688 L 107.683594 56.574219 C 107.917969 56.585938 108.097656 56.78125 108.085938 57.015625 C 108.078125 57.242188 107.890625 57.417969 107.664062 57.417969 Z M 107.664062 57.417969 " fill-opacity="1" fill-rule="nonzero"/><path fill="#eabb9b" d="M 107.527344 58.421875 C 108.316406 58.457031 108.988281 57.84375 109.023438 57.054688 C 109.058594 56.265625 108.445312 55.597656 107.65625 55.5625 C 106.867188 55.527344 106.199219 56.136719 106.164062 56.925781 C 106.128906 57.714844 106.738281 58.382812 107.527344 58.421875 Z M 107.527344 58.421875 " fill-opacity="1" fill-rule="nonzero"/><path fill="#eabb9b" d="M 113.066406 60.472656 L 113.058594 60.472656 L 91.527344 60.125 C 91.292969 60.121094 91.109375 59.929688 91.113281 59.695312 C 91.117188 59.464844 91.304688 59.28125 91.535156 59.28125 L 91.542969 59.28125 L 113.074219 59.628906 C 113.304688 59.632812 113.492188 59.824219 113.488281 60.058594 C 113.484375 60.289062 113.296875 60.472656 113.066406 60.472656 Z M 113.066406 60.472656 " fill-opacity="1" fill-rule="nonzero"/><path fill="#eabb9b" d="M 114.234375 59.339844 C 114.328125 59.503906 114.386719 59.679688 114.410156 59.867188 C 114.4375 60.054688 114.421875 60.242188 114.375 60.425781 C 114.324219 60.605469 114.242188 60.773438 114.125 60.925781 C 114.007812 61.074219 113.867188 61.195312 113.703125 61.289062 C 113.539062 61.386719 113.363281 61.445312 113.175781 61.46875 C 112.988281 61.492188 112.800781 61.480469 112.617188 61.429688 C 112.433594 61.378906 112.269531 61.296875 112.117188 61.179688 C 111.96875 61.066406 111.847656 60.925781 111.75 60.761719 C 111.65625 60.597656 111.597656 60.417969 111.574219 60.230469 C 111.550781 60.042969 111.5625 59.859375 111.613281 59.675781 C 111.660156 59.492188 111.746094 59.324219 111.859375 59.175781 C 111.976562 59.023438 112.117188 58.902344 112.28125 58.808594 C 112.445312 58.714844 112.621094 58.65625 112.8125 58.628906 C 113 58.605469 113.183594 58.621094 113.367188 58.667969 C 113.550781 58.71875 113.71875 58.800781 113.867188 58.917969 C 114.015625 59.035156 114.140625 59.171875 114.234375 59.339844 Z M 114.234375 59.339844 " fill-opacity="1" fill-rule="nonzero"/><path fill="#eabb9b" d="M 107.230469 64.261719 C 107.230469 64.261719 107.222656 64.261719 107.214844 64.261719 L 90.226562 63.753906 C 89.992188 63.75 89.808594 63.554688 89.816406 63.320312 C 89.824219 63.09375 90.011719 62.910156 90.238281 62.910156 C 90.246094 62.910156 90.25 62.910156 90.253906 62.910156 L 107.242188 63.417969 C 107.476562 63.425781 107.660156 63.617188 107.652344 63.851562 C 107.644531 64.082031 107.457031 64.261719 107.230469 64.261719 Z M 107.230469 64.261719 " fill-opacity="1" fill-rule="nonzero"/><path fill="#eabb9b" d="M 107.113281 65.269531 C 107.90625 65.292969 108.5625 64.671875 108.585938 63.882812 C 108.613281 63.09375 107.992188 62.433594 107.199219 62.410156 C 106.410156 62.382812 105.753906 63.007812 105.726562 63.796875 C 105.703125 64.585938 106.324219 65.242188 107.113281 65.269531 Z M 107.113281 65.269531 " fill-opacity="1" fill-rule="nonzero"/><path fill="#eabb9b" d="M 108.285156 57.710938 C 108.15625 57.710938 108.027344 57.652344 107.945312 57.542969 C 107.804688 57.355469 107.84375 57.089844 108.03125 56.949219 L 118.082031 49.445312 C 118.269531 49.308594 118.535156 49.34375 118.675781 49.53125 C 118.816406 49.71875 118.777344 49.984375 118.589844 50.125 L 108.535156 57.628906 C 108.460938 57.683594 108.371094 57.710938 108.285156 57.710938 Z M 108.285156 57.710938 " fill-opacity="1" fill-rule="nonzero"/><path fill="#eabb9b" d="M 119.136719 50.976562 C 119.769531 50.503906 119.898438 49.609375 119.425781 48.972656 C 118.953125 48.339844 118.058594 48.210938 117.421875 48.683594 C 116.789062 49.15625 116.660156 50.050781 117.132812 50.6875 C 117.605469 51.320312 118.5 51.449219 119.136719 50.976562 Z M 119.136719 50.976562 " fill-opacity="1" fill-rule="nonzero"/><path fill="#eabb9b" d="M 113.621094 60.5625 C 113.496094 60.5625 113.371094 60.507812 113.285156 60.398438 C 113.144531 60.214844 113.179688 59.949219 113.363281 59.804688 L 117.035156 56.96875 C 117.222656 56.824219 117.488281 56.859375 117.628906 57.042969 C 117.773438 57.226562 117.738281 57.492188 117.554688 57.636719 L 113.878906 60.476562 C 113.800781 60.535156 113.710938 60.5625 113.621094 60.5625 Z M 113.621094 60.5625 " fill-opacity="1" fill-rule="nonzero"/><path fill="#eabb9b" d="M 118.113281 58.476562 C 118.742188 57.996094 118.855469 57.097656 118.371094 56.472656 C 117.890625 55.84375 116.992188 55.730469 116.367188 56.214844 C 115.738281 56.695312 115.625 57.59375 116.109375 58.21875 C 116.589844 58.84375 117.488281 58.960938 118.113281 58.476562 Z M 118.113281 58.476562 " fill-opacity="1" fill-rule="nonzero"/><path fill="#eabb9b" d="M 116.425781 68.554688 C 116.363281 68.554688 116.296875 68.539062 116.238281 68.507812 L 107.609375 64.191406 C 107.398438 64.089844 107.316406 63.835938 107.417969 63.625 C 107.523438 63.414062 107.777344 63.332031 107.988281 63.4375 L 116.617188 67.75 C 116.824219 67.855469 116.910156 68.109375 116.804688 68.320312 C 116.730469 68.46875 116.582031 68.554688 116.425781 68.554688 Z M 116.425781 68.554688 " fill-opacity="1" fill-rule="nonzero"/><path fill="#eabb9b" d="M 115.722656 69.378906 C 116.429688 69.730469 117.289062 69.445312 117.644531 68.738281 C 117.996094 68.03125 117.707031 67.171875 117.003906 66.816406 C 116.296875 66.464844 115.4375 66.75 115.082031 67.457031 C 114.730469 68.164062 115.015625 69.023438 115.722656 69.378906 Z M 115.722656 69.378906 " fill-opacity="1" fill-rule="nonzero"/><path fill="#eabb9b" d="M 77.246094 27.457031 L 76.855469 27.457031 C 76.621094 27.457031 76.433594 27.269531 76.433594 27.035156 C 76.433594 26.800781 76.621094 26.613281 76.855469 26.613281 L 76.898438 26.613281 L 92.285156 11.222656 C 92.453125 11.058594 92.71875 11.058594 92.882812 11.222656 C 93.046875 11.386719 93.046875 11.65625 92.882812 11.820312 Z M 77.246094 27.457031 " fill-opacity="1" fill-rule="nonzero"/><path fill="#eabb9b" d="M 93.542969 12.585938 C 94.101562 12.027344 94.101562 11.121094 93.542969 10.5625 C 92.988281 10.003906 92.082031 10.003906 91.519531 10.5625 C 90.964844 11.121094 90.964844 12.023438 91.519531 12.585938 C 92.078125 13.144531 92.984375 13.144531 93.542969 12.585938 Z M 93.542969 12.585938 " fill-opacity="1" fill-rule="nonzero"/><path fill="#eabb9b" d="M 79.230469 31.777344 C 79.121094 31.777344 79.011719 31.734375 78.933594 31.652344 C 78.765625 31.488281 78.765625 31.21875 78.933594 31.054688 L 88.226562 21.761719 C 88.390625 21.597656 88.660156 21.597656 88.824219 21.761719 C 88.988281 21.925781 88.988281 22.195312 88.824219 22.359375 L 79.527344 31.652344 C 79.445312 31.734375 79.339844 31.777344 79.230469 31.777344 Z M 79.230469 31.777344 " fill-opacity="1" fill-rule="nonzero"/><path fill="#eabb9b" d="M 89.484375 23.121094 C 90.042969 22.5625 90.042969 21.65625 89.484375 21.097656 C 88.929688 20.539062 88.023438 20.539062 87.460938 21.097656 C 86.902344 21.65625 86.902344 22.5625 87.460938 23.121094 C 88.019531 23.679688 88.925781 23.679688 89.484375 23.121094 Z M 89.484375 23.121094 " fill-opacity="1" fill-rule="nonzero"/><path fill="#eabb9b" d="M 72.105469 26.808594 C 71.988281 26.808594 71.871094 26.761719 71.785156 26.667969 C 71.632812 26.492188 71.652344 26.222656 71.824219 26.070312 L 73.542969 24.566406 L 81.207031 16.902344 C 81.371094 16.738281 81.640625 16.738281 81.804688 16.902344 C 81.96875 17.066406 81.96875 17.335938 81.804688 17.5 L 74.109375 25.195312 L 72.382812 26.703125 C 72.300781 26.773438 72.203125 26.808594 72.105469 26.808594 Z M 72.105469 26.808594 " fill-opacity="1" fill-rule="nonzero"/><path fill="#eabb9b" d="M 82.46875 18.265625 C 83.027344 17.707031 83.027344 16.800781 82.46875 16.242188 C 81.910156 15.679688 81.003906 15.683594 80.445312 16.242188 C 79.882812 16.796875 79.886719 17.703125 80.445312 18.265625 C 81 18.824219 81.90625 18.824219 82.46875 18.265625 Z M 82.46875 18.265625 " fill-opacity="1" fill-rule="nonzero"/><path fill="#eabb9b" d="M 81.828125 16.957031 C 81.59375 16.957031 81.40625 16.765625 81.40625 16.53125 L 81.40625 9.675781 C 81.40625 9.441406 81.59375 9.253906 81.828125 9.253906 C 82.0625 9.253906 82.253906 9.441406 82.253906 9.675781 L 82.253906 16.53125 C 82.253906 16.765625 82.0625 16.957031 81.828125 16.957031 Z M 81.828125 16.957031 " fill-opacity="1" fill-rule="nonzero"/><path fill="#eabb9b" d="M 83.257812 9.746094 C 83.257812 8.957031 82.617188 8.316406 81.828125 8.316406 C 81.039062 8.316406 80.398438 8.957031 80.398438 9.746094 C 80.398438 10.539062 81.039062 11.179688 81.828125 11.179688 C 82.617188 11.179688 83.257812 10.539062 83.257812 9.746094 Z M 83.257812 9.746094 " fill-opacity="1" fill-rule="nonzero"/><path fill="#eabb9b" d="M 92.8125 10.898438 C 92.578125 10.898438 92.390625 10.710938 92.390625 10.476562 L 92.390625 5.5 C 92.390625 5.269531 92.578125 5.078125 92.8125 5.078125 C 93.046875 5.078125 93.234375 5.269531 93.234375 5.5 L 93.234375 10.476562 C 93.234375 10.710938 93.046875 10.898438 92.8125 10.898438 Z M 92.8125 10.898438 " fill-opacity="1" fill-rule="nonzero"/><path fill="#eabb9b" d="M 94.242188 5.570312 C 94.242188 4.78125 93.601562 4.140625 92.8125 4.140625 C 92.023438 4.140625 91.382812 4.78125 91.382812 5.570312 C 91.382812 6.363281 92.023438 7.003906 92.8125 7.003906 C 93.601562 7.003906 94.242188 6.363281 94.242188 5.570312 Z M 94.242188 5.570312 " fill-opacity="1" fill-rule="nonzero"/><path fill="#eabb9b" d="M 91.398438 24.632812 C 91.289062 24.632812 91.179688 24.589844 91.101562 24.507812 L 88.941406 22.347656 C 88.777344 22.183594 88.777344 21.914062 88.941406 21.75 C 89.105469 21.585938 89.375 21.585938 89.539062 21.75 L 91.695312 23.910156 C 91.863281 24.074219 91.863281 24.34375 91.695312 24.507812 C 91.613281 24.589844 91.507812 24.632812 91.398438 24.632812 Z M 91.398438 24.632812 " fill-opacity="1" fill-rule="nonzero"/><path fill="#eabb9b" d="M 90.335938 25.171875 C 90.894531 25.726562 91.800781 25.726562 92.359375 25.171875 C 92.917969 24.613281 92.917969 23.707031 92.359375 23.144531 C 91.800781 22.589844 90.894531 22.589844 90.335938 23.144531 C 89.777344 23.703125 89.777344 24.609375 90.335938 25.171875 Z M 90.335938 25.171875 " fill-opacity="1" fill-rule="nonzero"/><path fill="#eabb9b" d="M 56.34375 27.027344 C 56.109375 27.027344 55.921875 26.835938 55.921875 26.601562 L 55.921875 9.390625 C 55.921875 9.15625 56.109375 8.96875 56.34375 8.96875 C 56.578125 8.96875 56.765625 9.15625 56.765625 9.390625 L 56.765625 26.601562 C 56.765625 26.835938 56.578125 27.027344 56.34375 27.027344 Z M 56.34375 27.027344 " fill-opacity="1" fill-rule="nonzero"/><path fill="#eabb9b" d="M 57.773438 9.464844 C 57.773438 8.671875 57.132812 8.03125 56.34375 8.03125 C 55.554688 8.03125 54.914062 8.675781 54.914062 9.464844 C 54.914062 10.253906 55.554688 10.894531 56.34375 10.894531 C 57.132812 10.894531 57.773438 10.253906 57.773438 9.464844 Z M 57.773438 9.464844 " fill-opacity="1" fill-rule="nonzero"/><path fill="#eabb9b" d="M 52.460938 26.808594 C 52.226562 26.808594 52.035156 26.621094 52.035156 26.386719 L 52.035156 16.085938 C 52.035156 15.851562 52.226562 15.664062 52.460938 15.664062 C 52.691406 15.664062 52.882812 15.851562 52.882812 16.085938 L 52.882812 26.386719 C 52.882812 26.621094 52.691406 26.808594 52.460938 26.808594 Z M 52.460938 26.808594 " fill-opacity="1" fill-rule="nonzero"/><path fill="#eabb9b" d="M 53.890625 16.160156 C 53.890625 15.367188 53.25 14.726562 52.460938 14.726562 C 51.667969 14.726562 51.027344 15.371094 51.027344 16.160156 C 51.027344 16.949219 51.667969 17.589844 52.460938 17.589844 C 53.25 17.589844 53.890625 16.949219 53.890625 16.160156 Z M 53.890625 16.160156 " fill-opacity="1" fill-rule="nonzero"/><path fill="#eabb9b" d="M 59.582031 26.59375 C 59.347656 26.59375 59.160156 26.40625 59.160156 26.171875 L 59.160156 6.738281 L 64.628906 1.269531 C 64.792969 1.105469 65.0625 1.105469 65.226562 1.269531 C 65.390625 1.433594 65.390625 1.703125 65.226562 1.867188 L 60.007812 7.089844 L 60.007812 26.171875 C 60.007812 26.40625 59.816406 26.59375 59.582031 26.59375 Z M 59.582031 26.59375 " fill-opacity="1" fill-rule="nonzero"/><g clip-path="url(#22f67c2904)"><path fill="#eabb9b" d="M 65.890625 2.632812 C 66.449219 2.074219 66.449219 1.167969 65.890625 0.605469 C 65.332031 0.0507812 64.425781 0.0507812 63.867188 0.605469 C 63.308594 1.164062 63.308594 2.070312 63.867188 2.632812 C 64.425781 3.1875 65.332031 3.1875 65.890625 2.632812 Z M 65.890625 2.632812 " fill-opacity="1" fill-rule="nonzero"/></g><path fill="#eabb9b" d="M 56.199219 8.738281 C 56.09375 8.738281 55.984375 8.699219 55.902344 8.613281 L 51.636719 4.347656 C 51.472656 4.183594 51.472656 3.917969 51.636719 3.75 C 51.800781 3.585938 52.070312 3.585938 52.234375 3.75 L 56.5 8.015625 C 56.664062 8.183594 56.664062 8.449219 56.5 8.613281 C 56.417969 8.699219 56.308594 8.738281 56.199219 8.738281 Z M 56.199219 8.738281 " fill-opacity="1" fill-rule="nonzero"/><path fill="#eabb9b" d="M 52.996094 3.089844 C 52.4375 2.53125 51.53125 2.53125 50.972656 3.089844 C 50.414062 3.648438 50.414062 4.554688 50.972656 5.113281 C 51.53125 5.671875 52.4375 5.671875 52.996094 5.113281 C 53.554688 4.554688 53.554688 3.648438 52.996094 3.089844 Z M 52.996094 3.089844 " fill-opacity="1" fill-rule="nonzero"/><path fill="#eabb9b" d="M 51.960938 15.855469 C 51.851562 15.855469 51.746094 15.816406 51.664062 15.734375 L 48.878906 12.949219 C 48.714844 12.785156 48.714844 12.515625 48.878906 12.351562 C 49.042969 12.1875 49.3125 12.1875 49.476562 12.351562 L 52.261719 15.136719 C 52.425781 15.300781 52.425781 15.570312 52.261719 15.734375 C 52.175781 15.816406 52.070312 15.855469 51.960938 15.855469 Z M 51.960938 15.855469 " fill-opacity="1" fill-rule="nonzero"/><path fill="#eabb9b" d="M 50.238281 11.691406 C 49.679688 11.132812 48.773438 11.132812 48.214844 11.691406 C 47.65625 12.246094 47.65625 13.152344 48.214844 13.714844 C 48.773438 14.273438 49.679688 14.273438 50.238281 13.714844 C 50.796875 13.15625 50.796875 12.25 50.238281 11.691406 Z M 50.238281 11.691406 " fill-opacity="1" fill-rule="nonzero"/><path fill="#eabb9b" d="M 25.039062 56.820312 L 7.394531 56.820312 C 7.164062 56.820312 6.972656 56.632812 6.972656 56.398438 C 6.972656 56.164062 7.164062 55.976562 7.394531 55.976562 L 25.039062 55.976562 C 25.273438 55.976562 25.464844 56.164062 25.464844 56.398438 C 25.464844 56.632812 25.273438 56.820312 25.039062 56.820312 Z M 25.039062 56.820312 " fill-opacity="1" fill-rule="nonzero"/><path fill="#eabb9b" d="M 7.464844 54.96875 C 6.675781 54.96875 6.035156 55.609375 6.035156 56.398438 C 6.035156 57.1875 6.675781 57.828125 7.464844 57.828125 C 8.257812 57.828125 8.898438 57.1875 8.898438 56.398438 C 8.898438 55.609375 8.257812 54.96875 7.464844 54.96875 Z M 7.464844 54.96875 " fill-opacity="1" fill-rule="nonzero"/><path fill="#eabb9b" d="M 26.984375 60.492188 L 11.335938 60.492188 C 11.101562 60.492188 10.914062 60.300781 10.914062 60.066406 C 10.914062 59.832031 11.101562 59.644531 11.335938 59.644531 L 26.984375 59.644531 C 27.21875 59.644531 27.40625 59.832031 27.40625 60.066406 C 27.40625 60.300781 27.21875 60.492188 26.984375 60.492188 Z M 26.984375 60.492188 " fill-opacity="1" fill-rule="nonzero"/><path fill="#eabb9b" d="M 11.40625 58.636719 C 10.617188 58.636719 9.976562 59.277344 9.976562 60.066406 C 9.976562 60.855469 10.617188 61.496094 11.40625 61.496094 C 12.195312 61.496094 12.835938 60.855469 12.835938 60.066406 C 12.835938 59.277344 12.195312 58.636719 11.40625 58.636719 Z M 11.40625 58.636719 " fill-opacity="1" fill-rule="nonzero"/><path fill="#eabb9b" d="M 27.199219 53.367188 L 10.414062 53.367188 C 10.179688 53.367188 9.988281 53.175781 9.988281 52.945312 C 9.988281 52.710938 10.179688 52.519531 10.414062 52.519531 L 27.199219 52.519531 C 27.433594 52.519531 27.621094 52.710938 27.621094 52.945312 C 27.621094 53.175781 27.433594 53.367188 27.199219 53.367188 Z M 27.199219 53.367188 " fill-opacity="1" fill-rule="nonzero"/><path fill="#eabb9b" d="M 10.484375 51.511719 C 9.691406 51.511719 9.050781 52.152344 9.050781 52.945312 C 9.050781 53.734375 9.695312 54.375 10.484375 54.375 C 11.273438 54.375 11.914062 53.734375 11.914062 52.945312 C 11.914062 52.152344 11.273438 51.511719 10.484375 51.511719 Z M 10.484375 51.511719 " fill-opacity="1" fill-rule="nonzero"/><path fill="#eabb9b" d="M 27.128906 89.058594 C 27.019531 89.058594 26.914062 89.019531 26.832031 88.933594 C 26.664062 88.769531 26.664062 88.5 26.832031 88.335938 L 37.695312 77.472656 C 37.859375 77.308594 38.128906 77.308594 38.292969 77.472656 C 38.457031 77.636719 38.457031 77.90625 38.292969 78.070312 L 27.429688 88.933594 C 27.34375 89.019531 27.238281 89.058594 27.128906 89.058594 Z M 27.128906 89.058594 " fill-opacity="1" fill-rule="nonzero"/><path fill="#eabb9b" d="M 26.167969 87.574219 C 25.609375 88.132812 25.609375 89.039062 26.167969 89.597656 C 26.726562 90.15625 27.632812 90.15625 28.191406 89.597656 C 28.75 89.039062 28.75 88.132812 28.191406 87.574219 C 27.632812 87.015625 26.726562 87.015625 26.167969 87.574219 Z M 26.167969 87.574219 " fill-opacity="1" fill-rule="nonzero"/><path fill="#eabb9b" d="M 26.972656 94.179688 C 26.863281 94.179688 26.753906 94.140625 26.671875 94.058594 C 26.507812 93.890625 26.507812 93.625 26.671875 93.460938 L 39.207031 80.925781 C 39.371094 80.761719 39.636719 80.761719 39.804688 80.925781 C 39.96875 81.089844 39.96875 81.359375 39.804688 81.523438 L 27.269531 94.058594 C 27.1875 94.140625 27.082031 94.179688 26.972656 94.179688 Z M 26.972656 94.179688 " fill-opacity="1" fill-rule="nonzero"/><path fill="#eabb9b" d="M 26.011719 92.695312 C 25.453125 93.253906 25.453125 94.160156 26.011719 94.71875 C 26.570312 95.277344 27.476562 95.277344 28.035156 94.71875 C 28.59375 94.160156 28.59375 93.253906 28.035156 92.695312 C 27.476562 92.136719 26.570312 92.136719 26.011719 92.695312 Z M 26.011719 92.695312 " fill-opacity="1" fill-rule="nonzero"/><path fill="#eabb9b" d="M 35.601562 90.085938 C 35.492188 90.085938 35.382812 90.046875 35.300781 89.960938 C 35.136719 89.796875 35.136719 89.527344 35.300781 89.363281 L 40.933594 83.734375 C 41.097656 83.566406 41.367188 83.566406 41.53125 83.734375 C 41.695312 83.898438 41.695312 84.164062 41.53125 84.332031 L 35.898438 89.960938 C 35.816406 90.046875 35.710938 90.085938 35.601562 90.085938 Z M 35.601562 90.085938 " fill-opacity="1" fill-rule="nonzero"/><path fill="#eabb9b" d="M 34.640625 88.601562 C 34.082031 89.160156 34.082031 90.066406 34.640625 90.625 C 35.199219 91.183594 36.105469 91.183594 36.664062 90.625 C 37.222656 90.066406 37.222656 89.160156 36.664062 88.601562 C 36.105469 88.042969 35.199219 88.042969 34.640625 88.601562 Z M 34.640625 88.601562 " fill-opacity="1" fill-rule="nonzero"/><path fill="#eabb9b" d="M 65.410156 99.640625 C 65.179688 99.640625 64.988281 99.449219 64.988281 99.214844 L 64.988281 86.625 C 64.988281 86.390625 65.179688 86.199219 65.410156 86.199219 C 65.644531 86.199219 65.835938 86.390625 65.835938 86.625 L 65.835938 99.214844 C 65.835938 99.449219 65.644531 99.640625 65.410156 99.640625 Z M 65.410156 99.640625 " fill-opacity="1" fill-rule="nonzero"/><path fill="#eabb9b" d="M 63.980469 99.144531 C 63.980469 99.933594 64.621094 100.574219 65.410156 100.574219 C 66.203125 100.574219 66.84375 99.933594 66.84375 99.144531 C 66.84375 98.355469 66.203125 97.714844 65.410156 97.714844 C 64.621094 97.714844 63.980469 98.355469 63.980469 99.144531 Z M 63.980469 99.144531 " fill-opacity="1" fill-rule="nonzero"/><path fill="#eabb9b" d="M 67.570312 96.265625 C 67.335938 96.265625 67.148438 96.078125 67.148438 95.84375 L 67.148438 86.625 C 67.148438 86.390625 67.335938 86.199219 67.570312 86.199219 C 67.804688 86.199219 67.992188 86.390625 67.992188 86.625 L 67.992188 95.84375 C 67.992188 96.078125 67.804688 96.265625 67.570312 96.265625 Z M 67.570312 96.265625 " fill-opacity="1" fill-rule="nonzero"/><path fill="#eabb9b" d="M 68.324219 94.558594 C 68.484375 94.660156 68.621094 94.785156 68.730469 94.941406 C 68.84375 95.09375 68.917969 95.261719 68.964844 95.449219 C 69.007812 95.632812 69.011719 95.820312 68.984375 96.007812 C 68.953125 96.191406 68.886719 96.367188 68.789062 96.527344 C 68.6875 96.691406 68.5625 96.828125 68.40625 96.9375 C 68.253906 97.046875 68.085938 97.125 67.898438 97.167969 C 67.714844 97.210938 67.527344 97.21875 67.34375 97.1875 C 67.15625 97.160156 66.980469 97.09375 66.820312 96.992188 C 66.65625 96.894531 66.523438 96.765625 66.410156 96.613281 C 66.300781 96.460938 66.222656 96.289062 66.179688 96.105469 C 66.136719 95.921875 66.128906 95.734375 66.160156 95.546875 C 66.191406 95.359375 66.253906 95.1875 66.355469 95.023438 C 66.453125 94.863281 66.582031 94.726562 66.734375 94.617188 C 66.890625 94.503906 67.058594 94.429688 67.242188 94.382812 C 67.425781 94.339844 67.613281 94.335938 67.800781 94.363281 C 67.988281 94.394531 68.160156 94.460938 68.324219 94.558594 Z M 68.324219 94.558594 " fill-opacity="1" fill-rule="nonzero"/><path fill="#eabb9b" d="M 70.160156 104.863281 C 69.925781 104.863281 69.738281 104.671875 69.738281 104.441406 L 69.738281 86.40625 C 69.738281 86.171875 69.925781 85.984375 70.160156 85.984375 C 70.394531 85.984375 70.585938 86.171875 70.585938 86.40625 L 70.585938 104.441406 C 70.585938 104.671875 70.394531 104.863281 70.160156 104.863281 Z M 70.160156 104.863281 " fill-opacity="1" fill-rule="nonzero"/><path fill="#eabb9b" d="M 71.484375 103.820312 C 71.558594 103.996094 71.59375 104.179688 71.59375 104.367188 C 71.59375 104.558594 71.558594 104.742188 71.484375 104.914062 C 71.410156 105.089844 71.308594 105.246094 71.175781 105.378906 C 71.039062 105.515625 70.886719 105.617188 70.710938 105.691406 C 70.535156 105.761719 70.351562 105.796875 70.164062 105.796875 C 69.972656 105.796875 69.789062 105.761719 69.617188 105.691406 C 69.441406 105.617188 69.285156 105.515625 69.152344 105.378906 C 69.015625 105.246094 68.914062 105.089844 68.839844 104.914062 C 68.769531 104.742188 68.730469 104.558594 68.730469 104.367188 C 68.730469 104.179688 68.769531 103.996094 68.839844 103.820312 C 68.914062 103.644531 69.015625 103.492188 69.152344 103.355469 C 69.285156 103.222656 69.441406 103.121094 69.617188 103.046875 C 69.789062 102.972656 69.972656 102.9375 70.164062 102.9375 C 70.351562 102.9375 70.535156 102.972656 70.710938 103.046875 C 70.886719 103.121094 71.039062 103.222656 71.175781 103.355469 C 71.308594 103.492188 71.410156 103.644531 71.484375 103.820312 Z M 71.484375 103.820312 " fill-opacity="1" fill-rule="nonzero"/><path fill="#eabb9b" d="M 97.359375 93.300781 C 97.25 93.300781 97.140625 93.257812 97.058594 93.175781 L 81.523438 77.636719 C 81.355469 77.472656 81.355469 77.203125 81.523438 77.039062 C 81.6875 76.875 81.953125 76.875 82.121094 77.039062 L 97.65625 92.578125 C 97.820312 92.742188 97.820312 93.011719 97.65625 93.175781 C 97.574219 93.257812 97.46875 93.300781 97.359375 93.300781 Z M 97.359375 93.300781 " fill-opacity="1" fill-rule="nonzero"/><path fill="#eabb9b" d="M 96.296875 93.835938 C 96.855469 94.394531 97.761719 94.394531 98.320312 93.835938 C 98.878906 93.28125 98.878906 92.375 98.320312 91.8125 C 97.761719 91.253906 96.855469 91.253906 96.296875 91.8125 C 95.734375 92.371094 95.738281 93.277344 96.296875 93.835938 Z M 96.296875 93.835938 " fill-opacity="1" fill-rule="nonzero"/><path fill="#eabb9b" d="M 96.429688 89.347656 C 96.320312 89.347656 96.210938 89.308594 96.132812 89.226562 L 82.816406 75.910156 C 82.652344 75.746094 82.652344 75.476562 82.816406 75.3125 C 82.980469 75.148438 83.25 75.148438 83.414062 75.3125 L 96.726562 88.628906 C 96.894531 88.792969 96.894531 89.058594 96.726562 89.226562 C 96.644531 89.308594 96.539062 89.347656 96.429688 89.347656 Z M 96.429688 89.347656 " fill-opacity="1" fill-rule="nonzero"/><path fill="#eabb9b" d="M 95.367188 89.886719 C 95.925781 90.445312 96.832031 90.445312 97.390625 89.886719 C 97.953125 89.328125 97.949219 88.421875 97.390625 87.863281 C 96.835938 87.304688 95.929688 87.304688 95.367188 87.863281 C 94.808594 88.421875 94.808594 89.328125 95.367188 89.886719 Z M 95.367188 89.886719 " fill-opacity="1" fill-rule="nonzero"/><path fill="#eabb9b" d="M 93.847656 82.019531 C 93.742188 82.019531 93.632812 81.976562 93.550781 81.894531 L 84.113281 72.457031 C 83.949219 72.292969 83.949219 72.023438 84.113281 71.859375 C 84.277344 71.695312 84.546875 71.695312 84.710938 71.859375 L 94.148438 81.296875 C 94.3125 81.460938 94.3125 81.730469 94.148438 81.894531 C 94.066406 81.976562 93.957031 82.019531 93.847656 82.019531 Z M 93.847656 82.019531 " fill-opacity="1" fill-rule="nonzero"/><path fill="#eabb9b" d="M 92.785156 82.558594 C 93.34375 83.117188 94.25 83.117188 94.808594 82.558594 C 95.371094 82 95.367188 81.09375 94.808594 80.535156 C 94.253906 79.972656 93.347656 79.976562 92.785156 80.535156 C 92.226562 81.089844 92.230469 81.996094 92.785156 82.558594 Z M 92.785156 82.558594 " fill-opacity="1" fill-rule="nonzero"/><path fill="#eabb9b" d="M 33.246094 41.707031 C 33.136719 41.707031 33.027344 41.667969 32.945312 41.585938 L 18.792969 27.429688 C 18.628906 27.265625 18.628906 26.996094 18.792969 26.832031 C 18.957031 26.667969 19.226562 26.667969 19.390625 26.832031 L 33.542969 40.988281 C 33.707031 41.152344 33.707031 41.417969 33.542969 41.585938 C 33.460938 41.667969 33.351562 41.707031 33.246094 41.707031 Z M 33.246094 41.707031 " fill-opacity="1" fill-rule="nonzero"/><path fill="#eabb9b" d="M 20.152344 26.171875 C 19.59375 25.613281 18.6875 25.613281 18.128906 26.171875 C 17.570312 26.730469 17.570312 27.636719 18.128906 28.195312 C 18.6875 28.753906 19.59375 28.753906 20.152344 28.195312 C 20.710938 27.636719 20.710938 26.730469 20.152344 26.171875 Z M 20.152344 26.171875 " fill-opacity="1" fill-rule="nonzero"/><path fill="#eabb9b" d="M 34.972656 39.765625 C 34.863281 39.765625 34.753906 39.722656 34.671875 39.640625 L 20.945312 25.914062 C 20.78125 25.75 20.78125 25.480469 20.945312 25.316406 C 21.109375 25.152344 21.378906 25.152344 21.542969 25.316406 L 35.269531 39.042969 C 35.433594 39.207031 35.433594 39.476562 35.269531 39.640625 C 35.1875 39.722656 35.078125 39.765625 34.972656 39.765625 Z M 34.972656 39.765625 " fill-opacity="1" fill-rule="nonzero"/><path fill="#eabb9b" d="M 22.308594 24.652344 C 21.75 24.097656 20.84375 24.097656 20.28125 24.652344 C 19.726562 25.210938 19.726562 26.117188 20.28125 26.679688 C 20.839844 27.234375 21.746094 27.234375 22.308594 26.679688 C 22.863281 26.121094 22.863281 25.214844 22.308594 24.652344 Z M 22.308594 24.652344 " fill-opacity="1" fill-rule="nonzero"/><path fill="#eabb9b" d="M 36.699219 38.035156 C 36.589844 38.035156 36.480469 37.996094 36.398438 37.914062 L 27.34375 28.859375 C 27.179688 28.691406 27.179688 28.425781 27.34375 28.261719 C 27.511719 28.097656 27.777344 28.097656 27.941406 28.261719 L 36.996094 37.316406 C 37.164062 37.480469 37.164062 37.75 36.996094 37.914062 C 36.914062 37.996094 36.808594 38.035156 36.699219 38.035156 Z M 36.699219 38.035156 " fill-opacity="1" fill-rule="nonzero"/><path fill="#eabb9b" d="M 28.707031 27.601562 C 28.148438 27.042969 27.242188 27.042969 26.683594 27.601562 C 26.125 28.15625 26.125 29.0625 26.683594 29.625 C 27.242188 30.179688 28.148438 30.179688 28.707031 29.625 C 29.265625 29.066406 29.265625 28.160156 28.707031 27.601562 Z M 28.707031 27.601562 " fill-opacity="1" fill-rule="nonzero"/><path fill="#eabb9b" d="M 27.324219 28.25 C 27.261719 28.25 27.195312 28.238281 27.136719 28.207031 C 26.929688 28.101562 26.84375 27.847656 26.949219 27.640625 L 29.074219 23.386719 C 29.179688 23.175781 29.433594 23.09375 29.640625 23.195312 C 29.847656 23.300781 29.933594 23.554688 29.828125 23.761719 L 27.703125 28.015625 C 27.628906 28.164062 27.480469 28.25 27.324219 28.25 Z M 27.324219 28.25 " fill-opacity="1" fill-rule="nonzero"/><path fill="#eabb9b" d="M 30.699219 24.277344 C 31.054688 23.570312 30.765625 22.710938 30.058594 22.359375 C 29.351562 22.003906 28.492188 22.292969 28.140625 23 C 27.785156 23.703125 28.074219 24.5625 28.78125 24.917969 C 29.484375 25.273438 30.34375 24.984375 30.699219 24.277344 Z M 30.699219 24.277344 " fill-opacity="1" fill-rule="nonzero"/><path fill="#eabb9b" d="M 20.996094 25.09375 C 20.9375 25.09375 20.871094 25.078125 20.8125 25.050781 C 20.601562 24.949219 20.515625 24.695312 20.617188 24.484375 L 22.902344 19.804688 C 23.003906 19.59375 23.257812 19.507812 23.464844 19.609375 C 23.675781 19.714844 23.765625 19.964844 23.660156 20.175781 L 21.378906 24.855469 C 21.304688 25.007812 21.152344 25.09375 20.996094 25.09375 Z M 20.996094 25.09375 " fill-opacity="1" fill-rule="nonzero"/><path fill="#eabb9b" d="M 24.535156 20.679688 C 24.882812 19.972656 24.585938 19.113281 23.875 18.769531 C 23.167969 18.421875 22.308594 18.714844 21.964844 19.425781 C 21.617188 20.136719 21.914062 20.996094 22.621094 21.339844 C 23.332031 21.683594 24.191406 21.390625 24.535156 20.679688 Z M 24.535156 20.679688 " fill-opacity="1" fill-rule="nonzero"/><path fill="#eabb9b" d="M 17.839844 27.523438 C 17.824219 27.523438 17.808594 27.523438 17.792969 27.523438 L 11.515625 26.8125 C 11.28125 26.785156 11.117188 26.578125 11.140625 26.34375 C 11.167969 26.113281 11.378906 25.945312 11.609375 25.972656 L 17.886719 26.683594 C 18.121094 26.710938 18.289062 26.917969 18.261719 27.148438 C 18.238281 27.367188 18.054688 27.523438 17.839844 27.523438 Z M 17.839844 27.523438 " fill-opacity="1" fill-rule="nonzero"/><path fill="#eabb9b" d="M 11.792969 24.976562 C 11.011719 24.886719 10.300781 25.453125 10.210938 26.238281 C 10.125 27.023438 10.6875 27.730469 11.472656 27.820312 C 12.257812 27.910156 12.96875 27.347656 13.054688 26.558594 C 13.144531 25.773438 12.582031 25.066406 11.796875 24.976562 Z M 11.792969 24.976562 " fill-opacity="1" fill-rule="nonzero"/><path fill="#eabb9b" d="M 9.769531 53.4375 C 9.65625 53.4375 9.542969 53.394531 9.460938 53.304688 C 9.300781 53.136719 9.308594 52.867188 9.476562 52.707031 L 14.101562 48.316406 C 14.273438 48.15625 14.539062 48.164062 14.699219 48.332031 C 14.863281 48.503906 14.855469 48.769531 14.683594 48.929688 L 10.058594 53.320312 C 9.976562 53.398438 9.871094 53.4375 9.769531 53.4375 Z M 9.769531 53.4375 " fill-opacity="1" fill-rule="nonzero"/><path fill="#eabb9b" d="M 15.328125 49.710938 C 15.902344 49.167969 15.925781 48.261719 15.382812 47.691406 C 14.839844 47.117188 13.933594 47.09375 13.359375 47.636719 C 12.785156 48.179688 12.761719 49.085938 13.308594 49.660156 C 13.851562 50.230469 14.753906 50.253906 15.328125 49.710938 Z M 15.328125 49.710938 " fill-opacity="1" fill-rule="nonzero"/><path fill="#eabb9b" d="M 1.996094 59.914062 C 1.855469 59.914062 1.71875 59.84375 1.636719 59.714844 C 1.515625 59.515625 1.574219 59.253906 1.773438 59.132812 L 6.375 56.253906 C 6.574219 56.132812 6.835938 56.191406 6.957031 56.390625 C 7.082031 56.585938 7.019531 56.847656 6.824219 56.972656 L 2.21875 59.847656 C 2.152344 59.894531 2.074219 59.914062 1.996094 59.914062 Z M 1.996094 59.914062 " fill-opacity="1" fill-rule="nonzero"/><g clip-path="url(#200d03b717)"><path fill="#eabb9b" d="M 1.300781 58.238281 C 0.628906 58.65625 0.425781 59.539062 0.84375 60.210938 C 1.261719 60.882812 2.144531 61.085938 2.816406 60.667969 C 3.484375 60.246094 3.691406 59.367188 3.269531 58.695312 C 2.851562 58.023438 1.96875 57.820312 1.300781 58.238281 Z M 1.300781 58.238281 " fill-opacity="1" fill-rule="nonzero"/></g><path fill="#eabb9b" d="M 14.808594 64.050781 C 14.707031 64.050781 14.605469 64.011719 14.523438 63.9375 L 10.488281 60.25 C 10.316406 60.09375 10.304688 59.824219 10.460938 59.652344 C 10.621094 59.480469 10.886719 59.46875 11.058594 59.625 L 15.09375 63.316406 C 15.265625 63.472656 15.277344 63.738281 15.121094 63.910156 C 15.039062 64.003906 14.921875 64.050781 14.808594 64.050781 Z M 14.808594 64.050781 " fill-opacity="1" fill-rule="nonzero"/><path fill="#eabb9b" d="M 13.789062 64.636719 C 14.371094 65.167969 15.277344 65.128906 15.808594 64.542969 C 16.34375 63.960938 16.300781 63.054688 15.71875 62.523438 C 15.136719 61.992188 14.230469 62.03125 13.699219 62.613281 C 13.167969 63.195312 13.207031 64.101562 13.789062 64.636719 Z M 13.789062 64.636719 " fill-opacity="1" fill-rule="nonzero"/><path fill="#eabb9b" d="M 26.882812 89.289062 C 26.6875 89.289062 26.511719 89.152344 26.46875 88.957031 L 25.472656 84.527344 C 25.421875 84.300781 25.566406 84.074219 25.792969 84.023438 C 26.023438 83.972656 26.246094 84.113281 26.300781 84.34375 L 27.296875 88.773438 C 27.347656 89.003906 27.203125 89.226562 26.976562 89.277344 C 26.945312 89.285156 26.914062 89.289062 26.882812 89.289062 Z M 26.882812 89.289062 " fill-opacity="1" fill-rule="nonzero"/><path fill="#eabb9b" d="M 27.296875 84.191406 C 27.121094 83.417969 26.355469 82.933594 25.585938 83.109375 C 24.816406 83.28125 24.332031 84.046875 24.503906 84.816406 C 24.675781 85.589844 25.441406 86.074219 26.214844 85.898438 C 26.984375 85.726562 27.46875 84.960938 27.296875 84.191406 Z M 27.296875 84.191406 " fill-opacity="1" fill-rule="nonzero"/><path fill="#eabb9b" d="M 29.925781 96.34375 C 29.871094 96.34375 29.8125 96.332031 29.757812 96.308594 L 26.472656 94.902344 C 26.261719 94.808594 26.160156 94.558594 26.25 94.347656 C 26.34375 94.132812 26.589844 94.03125 26.808594 94.125 L 30.09375 95.53125 C 30.304688 95.621094 30.40625 95.871094 30.316406 96.085938 C 30.246094 96.246094 30.089844 96.34375 29.925781 96.34375 Z M 29.925781 96.34375 " fill-opacity="1" fill-rule="nonzero"/><path fill="#eabb9b" d="M 29.296875 97.207031 C 30.023438 97.519531 30.863281 97.183594 31.175781 96.457031 C 31.488281 95.730469 31.148438 94.890625 30.425781 94.578125 C 29.699219 94.265625 28.855469 94.601562 28.546875 95.328125 C 28.234375 96.054688 28.570312 96.894531 29.296875 97.207031 Z M 29.296875 97.207031 " fill-opacity="1" fill-rule="nonzero"/><path fill="#eabb9b" d="M 39.429688 94.207031 C 39.324219 94.207031 39.214844 94.167969 39.132812 94.085938 L 34.910156 89.863281 C 34.746094 89.699219 34.746094 89.429688 34.910156 89.265625 C 35.078125 89.101562 35.34375 89.101562 35.507812 89.265625 L 39.730469 93.488281 C 39.894531 93.652344 39.894531 93.917969 39.730469 94.085938 C 39.648438 94.167969 39.539062 94.207031 39.429688 94.207031 Z M 39.429688 94.207031 " fill-opacity="1" fill-rule="nonzero"/><path fill="#eabb9b" d="M 38.367188 94.746094 C 38.925781 95.304688 39.832031 95.304688 40.390625 94.746094 C 40.953125 94.1875 40.949219 93.28125 40.390625 92.722656 C 39.835938 92.164062 38.929688 92.164062 38.367188 92.722656 C 37.808594 93.28125 37.8125 94.1875 38.367188 94.746094 Z M 38.367188 94.746094 " fill-opacity="1" fill-rule="nonzero"/><path fill="#eabb9b" d="M 60.367188 99.890625 C 60.140625 99.890625 59.953125 99.710938 59.945312 99.480469 C 59.9375 99.246094 60.121094 99.050781 60.351562 99.042969 L 65.148438 98.878906 C 65.386719 98.867188 65.578125 99.050781 65.585938 99.285156 C 65.59375 99.519531 65.410156 99.714844 65.175781 99.722656 L 60.382812 99.890625 C 60.382812 99.890625 60.371094 99.890625 60.367188 99.890625 Z M 60.367188 99.890625 " fill-opacity="1" fill-rule="nonzero"/><path fill="#eabb9b" d="M 60.390625 98.03125 C 59.601562 98.0625 58.984375 98.722656 59.011719 99.511719 C 59.039062 100.300781 59.703125 100.921875 60.492188 100.890625 C 61.28125 100.863281 61.898438 100.203125 61.871094 99.414062 C 61.84375 98.625 61.179688 98.003906 60.390625 98.03125 Z M 60.390625 98.03125 " fill-opacity="1" fill-rule="nonzero"/><path fill="#eabb9b" d="M 70.269531 105.738281 C 70.132812 105.738281 70.003906 105.675781 69.921875 105.554688 C 69.789062 105.363281 69.839844 105.097656 70.03125 104.964844 L 74.304688 102.0625 C 74.496094 101.929688 74.761719 101.980469 74.890625 102.171875 C 75.023438 102.363281 74.972656 102.628906 74.78125 102.761719 L 70.507812 105.664062 C 70.433594 105.714844 70.351562 105.738281 70.269531 105.738281 Z M 70.269531 105.738281 " fill-opacity="1" fill-rule="nonzero"/><path fill="#eabb9b" d="M 75.289062 103.632812 C 75.941406 103.191406 76.113281 102.300781 75.667969 101.644531 C 75.222656 100.992188 74.332031 100.824219 73.679688 101.265625 C 73.027344 101.710938 72.859375 102.601562 73.300781 103.253906 C 73.746094 103.910156 74.636719 104.078125 75.289062 103.632812 Z M 75.289062 103.632812 " fill-opacity="1" fill-rule="nonzero"/><path fill="#eabb9b" d="M 94.882812 81.75 C 94.746094 81.75 94.617188 81.6875 94.535156 81.566406 C 94.402344 81.375 94.449219 81.113281 94.644531 80.980469 L 98.703125 78.1875 C 98.894531 78.054688 99.160156 78.105469 99.292969 78.296875 C 99.425781 78.488281 99.375 78.75 99.183594 78.882812 L 95.121094 81.675781 C 95.046875 81.726562 94.964844 81.75 94.882812 81.75 Z M 94.882812 81.75 " fill-opacity="1" fill-rule="nonzero"/><path fill="#eabb9b" d="M 99.695312 79.753906 C 100.347656 79.304688 100.511719 78.414062 100.0625 77.765625 C 99.613281 77.113281 98.722656 76.949219 98.074219 77.394531 C 97.421875 77.84375 97.257812 78.734375 97.707031 79.386719 C 98.152344 80.039062 99.042969 80.203125 99.695312 79.753906 Z M 99.695312 79.753906 " fill-opacity="1" fill-rule="nonzero"/><path fill="#eabb9b" d="M 97.464844 89.023438 C 97.367188 89.023438 97.269531 88.992188 97.1875 88.921875 C 97.011719 88.769531 96.992188 88.503906 97.144531 88.328125 L 100.144531 84.824219 C 100.296875 84.648438 100.5625 84.628906 100.742188 84.777344 C 100.917969 84.929688 100.9375 85.195312 100.789062 85.375 L 97.785156 88.875 C 97.703125 88.972656 97.582031 89.023438 97.464844 89.023438 Z M 97.464844 89.023438 " fill-opacity="1" fill-rule="nonzero"/><path fill="#eabb9b" d="M 101.503906 86.085938 C 102.019531 85.484375 101.949219 84.582031 101.347656 84.066406 C 100.75 83.554688 99.847656 83.621094 99.332031 84.222656 C 98.820312 84.824219 98.890625 85.726562 99.488281 86.238281 C 100.089844 86.753906 100.992188 86.683594 101.503906 86.085938 Z M 101.503906 86.085938 " fill-opacity="1" fill-rule="nonzero"/><path fill="#eabb9b" d="M 94.441406 97.007812 C 94.328125 97.007812 94.214844 96.964844 94.132812 96.875 C 93.972656 96.703125 93.984375 96.433594 94.15625 96.277344 L 97.691406 92.992188 C 97.863281 92.832031 98.128906 92.839844 98.289062 93.011719 C 98.449219 93.183594 98.4375 93.453125 98.265625 93.609375 L 94.730469 96.894531 C 94.648438 96.972656 94.546875 97.007812 94.441406 97.007812 Z M 94.441406 97.007812 " fill-opacity="1" fill-rule="nonzero"/><path fill="#eabb9b" d="M 93.519531 95.488281 C 92.941406 96.027344 92.90625 96.933594 93.445312 97.511719 C 93.984375 98.089844 94.890625 98.125 95.46875 97.585938 C 96.046875 97.050781 96.082031 96.144531 95.542969 95.5625 C 95.007812 94.984375 94.101562 94.949219 93.519531 95.488281 Z M 93.519531 95.488281 " fill-opacity="1" fill-rule="nonzero"/><g clip-path="url(#a78f3ae159)"><path fill="#ffffff" d="M 60.140625 36.117188 C 70.839844 36.117188 79.492188 44.769531 79.492188 55.472656 C 79.492188 60.003906 77.9375 64.167969 75.332031 67.460938 L 72.691406 65.113281 C 71.386719 63.953125 68.945312 62.636719 65.703125 63.195312 L 57.582031 64.234375 C 56.417969 64.382812 55.851562 65.210938 55.980469 65.867188 C 56.050781 66.210938 56.359375 66.507812 57.046875 66.613281 L 62.699219 66.832031 L 65.777344 68.644531 C 66.222656 68.90625 65.933594 69.378906 65.464844 69.160156 L 62.417969 67.742188 L 56.546875 67.585938 L 47.035156 65.402344 C 46.085938 65.183594 45.378906 66.800781 46.539062 67.203125 L 57.835938 71.078125 C 58.800781 71.4375 59.429688 71.648438 60.449219 71.609375 L 67.027344 71.359375 C 68.039062 71.320312 68.890625 71.507812 69.699219 72.304688 C 66.878906 73.90625 63.617188 74.824219 60.140625 74.824219 C 49.4375 74.824219 40.78125 66.171875 40.78125 55.472656 C 40.78125 44.769531 49.4375 36.117188 60.140625 36.117188 Z M 60.140625 34 C 48.292969 34 38.664062 43.625 38.664062 55.472656 C 38.664062 67.320312 48.292969 76.941406 60.140625 76.941406 C 71.988281 76.941406 81.609375 67.320312 81.609375 55.472656 C 81.609375 43.625 71.988281 34 60.140625 34 Z M 60.140625 34 " fill-opacity="1" fill-rule="evenodd"/></g><path fill="#ffffff" d="M 49.195312 59.203125 C 49.671875 58.628906 50.402344 58.914062 51.109375 59.4375 L 53.816406 61.433594 L 57.359375 63.050781 C 57.746094 63.230469 57.714844 63.496094 57.234375 63.546875 C 56.628906 63.605469 56.332031 63.8125 56.03125 64.027344 C 55.78125 64.203125 55.742188 64.253906 55.488281 64.140625 L 52.753906 62.890625 L 49.332031 60.296875 C 48.941406 59.996094 48.941406 59.503906 49.195312 59.203125 Z M 49.195312 59.203125 " fill-opacity="1" fill-rule="nonzero"/><path fill="#ffffff" d="M 49.277344 61.640625 L 52.25 63.609375 L 55.105469 64.589844 C 55.363281 64.675781 55.511719 64.769531 55.414062 65.003906 C 55.28125 65.308594 55.230469 65.878906 55.304688 66.074219 C 55.371094 66.242188 55.1875 66.40625 54.976562 66.351562 L 51.164062 65.34375 C 50.515625 64.886719 47.789062 62.722656 47.789062 62.722656 C 47.429688 62.4375 47.347656 62.03125 47.554688 61.765625 C 47.957031 61.257812 48.558594 61.164062 49.277344 61.640625 Z M 49.277344 61.640625 " fill-opacity="1" fill-rule="nonzero"/><path fill="#ffffff" d="M 56.945312 60.074219 L 60.191406 62.355469 L 60.667969 62.59375 C 60.96875 62.75 60.90625 63.027344 60.363281 63.148438 L 59.046875 63.296875 C 58.570312 63.355469 58.371094 63.171875 58.03125 62.882812 L 55.511719 60.761719 C 54.75 60.117188 55.933594 59.363281 56.945312 60.074219 Z M 56.945312 60.074219 " fill-opacity="1" fill-rule="nonzero"/><path fill="#ffffff" d="M 56.613281 45.507812 C 56.183594 47.121094 55.511719 48.582031 55.355469 51.523438 C 55.257812 53.355469 55.765625 54.953125 56.671875 56.101562 C 56.914062 56.410156 57.199219 56.6875 57.515625 56.929688 C 56.6875 56.609375 56.011719 56.140625 55.496094 55.558594 C 54.511719 54.445312 54.046875 52.898438 54.230469 51.136719 C 54.390625 49.5625 55.230469 47.535156 56.613281 45.507812 Z M 60.125 38.683594 C 59.980469 38.6875 59.847656 38.761719 59.769531 38.878906 L 55.679688 44.863281 C 54.214844 47 53.292969 49.164062 53.101562 51.019531 C 52.890625 53.054688 53.425781 54.9375 54.644531 56.308594 C 55.863281 57.683594 57.75 58.519531 60.140625 58.519531 C 62.523438 58.519531 64.414062 57.683594 65.628906 56.308594 C 66.847656 54.9375 67.382812 53.054688 67.171875 51.019531 C 66.980469 49.164062 66.058594 47 64.59375 44.863281 L 60.511719 38.878906 C 60.421875 38.75 60.277344 38.675781 60.125 38.683594 Z M 60.125 38.683594 " fill-opacity="1" fill-rule="nonzero"/><g fill="#eabb9b" fill-opacity="1"><g transform="translate(122.110301, 86.388098)"><g><path d="M 17.800781 0 L 12.195312 -37.554688 L 11.867188 -40.074219 L 11.378906 -40.074219 L 11.378906 0 L 3.25 0 L 3.25 -59.75 L 13.980469 -59.75 L 19.183594 -32.433594 L 19.589844 -29.265625 L 19.753906 -29.265625 L 20.160156 -32.433594 L 25.363281 -59.75 L 36.09375 -59.75 L 36.09375 0 L 27.964844 0 L 27.964844 -40.074219 L 27.476562 -40.074219 L 27.152344 -37.554688 L 21.542969 0 Z M 17.800781 0 "/></g></g></g><g fill="#eabb9b" fill-opacity="1"><g transform="translate(161.452649, 86.388098)"><g><path d="M 13.574219 -40.644531 L 13.820312 -40.074219 L 13.980469 -40.074219 L 14.226562 -40.644531 L 18.617188 -59.75 L 27.230469 -59.75 L 18.289062 -25.445312 L 18.289062 0 L 9.511719 0 L 9.511719 -25.445312 L 0.570312 -59.75 L 9.1875 -59.75 Z M 13.574219 -40.644531 "/></g></g></g><g fill="#eabb9b" fill-opacity="1"><g transform="translate(189.252409, 86.388098)"><g><path d="M 3.25 -59.75 L 12.03125 -59.75 C 15.851562 -59.75 19.671875 -58.773438 22.597656 -56.007812 C 25.523438 -53.246094 27.476562 -48.691406 27.476562 -41.863281 C 27.476562 -35.035156 25.523438 -30.566406 22.597656 -27.800781 C 19.671875 -25.039062 15.851562 -23.898438 12.03125 -23.898438 L 12.03125 0 L 3.25 0 Z M 12.03125 -32.839844 C 14.714844 -32.839844 16.421875 -33.328125 17.394531 -34.710938 C 18.371094 -36.011719 18.617188 -38.207031 18.617188 -41.539062 C 18.617188 -44.871094 18.371094 -47.230469 17.394531 -48.691406 C 16.421875 -50.15625 14.714844 -50.804688 12.03125 -50.804688 Z M 12.03125 -32.839844 "/></g></g></g><g fill="#eabb9b" fill-opacity="1"><g transform="translate(217.86503, 86.388098)"><g><path d="M 17.800781 -43.734375 C 17.800781 -45.683594 17.722656 -47.878906 17.152344 -49.585938 C 16.582031 -51.214844 15.6875 -52.351562 14.308594 -52.351562 C 12.03125 -52.269531 11.300781 -49.914062 11.300781 -46.417969 C 11.300781 -44.382812 12.195312 -42.269531 13.496094 -39.996094 C 14.792969 -37.71875 16.5 -35.359375 18.210938 -32.839844 C 20.242188 -29.832031 22.273438 -26.746094 23.816406 -23.738281 C 25.363281 -20.730469 26.417969 -17.640625 26.417969 -14.386719 C 26.417969 -10.40625 25.769531 -6.664062 23.898438 -3.902344 C 22.03125 -1.136719 19.023438 0.648438 14.226562 0.648438 C 8.617188 0.648438 5.445312 -1.464844 3.65625 -4.714844 C 1.871094 -7.964844 1.464844 -12.273438 1.464844 -16.746094 L 10.078125 -17.558594 C 10.078125 -15.039062 10.160156 -12.519531 10.8125 -10.648438 C 11.378906 -8.699219 12.355469 -7.398438 14.226562 -7.398438 C 16.828125 -7.398438 17.800781 -10.160156 17.800781 -13.980469 C 17.800781 -15.933594 16.828125 -18.210938 15.527344 -20.566406 C 14.792969 -21.703125 14.0625 -22.925781 13.25 -24.144531 C 11.542969 -26.582031 9.671875 -29.347656 7.722656 -32.355469 C 5.773438 -35.359375 4.308594 -38.449219 3.414062 -41.621094 C 2.925781 -43.164062 2.683594 -44.789062 2.683594 -46.417969 C 2.683594 -49.667969 3.414062 -53.164062 5.285156 -55.847656 C 7.152344 -58.449219 10 -60.316406 14.144531 -60.398438 C 19.429688 -60.480469 22.515625 -58.285156 24.222656 -55.113281 C 25.929688 -51.863281 26.417969 -47.878906 26.417969 -44.546875 Z M 17.800781 -43.734375 "/></g></g></g><g fill="#eabb9b" fill-opacity="1"><g transform="translate(245.746069, 86.388098)"><g><path d="M 26.09375 -12.273438 C 26.011719 -9.835938 25.523438 -7.640625 24.632812 -5.773438 C 23.898438 -4.144531 22.761719 -2.601562 21.136719 -1.382812 C 19.507812 -0.0820312 17.316406 0.648438 14.386719 0.648438 C 11.460938 0.648438 9.1875 -0.0820312 7.558594 -1.382812 C 5.933594 -2.601562 4.878906 -4.144531 4.144531 -5.773438 C 3.25 -7.640625 2.765625 -9.835938 2.683594 -12.273438 L 2.683594 -47.472656 C 2.765625 -49.832031 3.25 -52.027344 4.144531 -53.894531 C 4.878906 -55.519531 5.933594 -57.148438 7.558594 -58.367188 C 9.1875 -59.585938 11.460938 -60.398438 14.386719 -60.398438 C 17.316406 -60.398438 19.507812 -59.585938 21.136719 -58.367188 C 22.761719 -57.148438 23.898438 -55.519531 24.632812 -53.894531 C 25.523438 -52.027344 26.011719 -49.832031 26.09375 -47.472656 Z M 17.316406 -47.472656 C 17.316406 -49.097656 16.988281 -50.238281 16.175781 -51.214844 C 15.769531 -51.621094 15.121094 -51.863281 14.386719 -51.863281 C 12.84375 -51.863281 12.113281 -50.726562 11.785156 -49.667969 C 11.542969 -49.019531 11.460938 -48.285156 11.460938 -47.472656 L 11.460938 -12.273438 C 11.460938 -10.566406 11.867188 -9.429688 12.679688 -8.535156 C 13.085938 -8.128906 13.65625 -7.886719 14.386719 -7.886719 C 15.933594 -7.886719 16.664062 -8.859375 16.988281 -10.078125 C 17.234375 -10.648438 17.316406 -11.378906 17.316406 -12.273438 Z M 17.316406 -47.472656 "/></g></g></g><g fill="#eabb9b" fill-opacity="1"><g transform="translate(274.521259, 86.388098)"><g><path d="M 18.941406 0 L 14.386719 -25.199219 L 12.03125 -25.199219 L 12.03125 0 L 3.25 0 L 3.25 -59.75 L 12.03125 -59.75 C 22.515625 -59.75 26.988281 -53.8125 26.988281 -42.515625 C 26.988281 -36.582031 25.445312 -31.214844 22.109375 -28.9375 L 27.71875 0 Z M 12.03125 -33.328125 C 13.25 -33.328125 14.875 -33.492188 16.175781 -34.628906 C 17.476562 -35.769531 18.535156 -37.960938 18.535156 -42.191406 C 18.535156 -46.417969 17.476562 -48.691406 16.175781 -49.832031 C 14.875 -50.96875 13.25 -51.050781 12.03125 -51.050781 Z M 12.03125 -33.328125 "/></g></g></g><g fill="#000000" fill-opacity="1"><g transform="translate(303.875999, 86.388098)"><g><path d="M 0.8125 0 L 9.835938 -59.75 L 20.566406 -59.75 L 29.589844 0 L 21.054688 0 L 19.429688 -12.195312 L 10.972656 -12.195312 L 9.347656 0 Z M 15.6875 -40.320312 L 15.445312 -41.863281 L 14.957031 -41.863281 L 14.714844 -40.320312 L 12.195312 -21.460938 L 18.210938 -21.460938 Z M 15.6875 -40.320312 "/></g></g></g><g fill="#000000" fill-opacity="1"><g transform="translate(334.2769, 86.388098)"><g><path d="M 3.25 -59.75 L 12.03125 -59.75 L 12.03125 0 L 3.25 0 Z M 3.25 -59.75 "/></g></g></g></svg>