<svg xmlns="http://www.w3.org/2000/svg" xmlns:xlink="http://www.w3.org/1999/xlink" width="500" zoomAndPan="magnify" viewBox="0 0 375 108.749999" height="145" preserveAspectRatio="xMidYMid meet" version="1.0"><defs><g/><clipPath id="c51cadeb59"><path d="M 25.382812 26.871094 L 94.085938 26.871094 L 94.085938 85.496094 L 25.382812 85.496094 Z M 25.382812 26.871094 " clip-rule="nonzero"/></clipPath><clipPath id="33103f4393"><path d="M 94.078125 56.183594 L 77.335938 85.496094 L 42.121094 85.496094 L 25.382812 56.183594 L 42.121094 26.871094 L 77.335938 26.871094 Z M 94.078125 56.183594 " clip-rule="nonzero"/></clipPath><clipPath id="69c36964fc"><path d="M 0.429688 57 L 4 57 L 4 61 L 0.429688 61 Z M 0.429688 57 " clip-rule="nonzero"/></clipPath><clipPath id="d2ef9fc3e9"><path d="M 38.683594 33.980469 L 81.335938 33.980469 L 81.335938 76.632812 L 38.683594 76.632812 Z M 38.683594 33.980469 " clip-rule="nonzero"/></clipPath></defs><g clip-path="url(#c51cadeb59)"><g clip-path="url(#33103f4393)"><path fill="#eabb9b" d="M 25.382812 26.871094 L 94.085938 26.871094 L 94.085938 85.496094 L 25.382812 85.496094 Z M 25.382812 26.871094 " fill-opacity="1" fill-rule="nonzero"/></g></g><path fill="#eabb9b" d="M 77.21875 86.4375 L 42.246094 86.4375 L 24.757812 56.152344 L 42.246094 25.863281 L 77.21875 25.863281 L 94.703125 56.152344 Z M 43.058594 85.03125 L 76.402344 85.03125 L 93.078125 56.152344 L 76.402344 27.273438 L 43.058594 27.273438 L 26.382812 56.152344 Z M 43.058594 85.03125 " fill-opacity="1" fill-rule="nonzero"/><path fill="#eabb9b" d="M 107.664062 57.382812 C 107.664062 57.382812 107.652344 57.382812 107.644531 57.382812 L 93.460938 56.738281 C 93.226562 56.726562 93.046875 56.53125 93.058594 56.296875 C 93.070312 56.0625 93.265625 55.882812 93.5 55.894531 L 107.683594 56.539062 C 107.917969 56.550781 108.097656 56.746094 108.085938 56.980469 C 108.078125 57.207031 107.890625 57.382812 107.664062 57.382812 Z M 107.664062 57.382812 " fill-opacity="1" fill-rule="nonzero"/><path fill="#eabb9b" d="M 107.527344 58.382812 C 108.316406 58.417969 108.988281 57.808594 109.023438 57.019531 C 109.058594 56.230469 108.445312 55.5625 107.65625 55.527344 C 106.867188 55.492188 106.199219 56.101562 106.164062 56.890625 C 106.128906 57.679688 106.738281 58.347656 107.527344 58.382812 Z M 107.527344 58.382812 " fill-opacity="1" fill-rule="nonzero"/><path fill="#eabb9b" d="M 113.066406 60.4375 L 113.058594 60.4375 L 91.527344 60.089844 C 91.292969 60.085938 91.109375 59.894531 91.113281 59.660156 C 91.117188 59.429688 91.304688 59.246094 91.535156 59.246094 L 91.542969 59.246094 L 113.074219 59.589844 C 113.304688 59.597656 113.492188 59.789062 113.488281 60.023438 C 113.484375 60.253906 113.296875 60.4375 113.066406 60.4375 Z M 113.066406 60.4375 " fill-opacity="1" fill-rule="nonzero"/><path fill="#eabb9b" d="M 114.234375 59.300781 C 114.328125 59.46875 114.386719 59.644531 114.410156 59.832031 C 114.4375 60.019531 114.421875 60.207031 114.375 60.386719 C 114.324219 60.570312 114.242188 60.738281 114.125 60.886719 C 114.007812 61.039062 113.867188 61.160156 113.703125 61.253906 C 113.539062 61.347656 113.363281 61.40625 113.175781 61.433594 C 112.988281 61.457031 112.800781 61.445312 112.617188 61.394531 C 112.433594 61.34375 112.269531 61.261719 112.117188 61.144531 C 111.96875 61.03125 111.847656 60.890625 111.75 60.722656 C 111.65625 60.558594 111.597656 60.382812 111.574219 60.195312 C 111.550781 60.007812 111.5625 59.820312 111.613281 59.636719 C 111.660156 59.457031 111.746094 59.289062 111.859375 59.140625 C 111.976562 58.988281 112.117188 58.867188 112.28125 58.773438 C 112.445312 58.679688 112.621094 58.617188 112.8125 58.59375 C 113 58.570312 113.183594 58.582031 113.367188 58.632812 C 113.550781 58.683594 113.71875 58.765625 113.867188 58.882812 C 114.015625 58.996094 114.140625 59.136719 114.234375 59.300781 Z M 114.234375 59.300781 " fill-opacity="1" fill-rule="nonzero"/><path fill="#eabb9b" d="M 107.230469 64.226562 C 107.230469 64.226562 107.222656 64.226562 107.214844 64.226562 L 90.226562 63.71875 C 89.992188 63.710938 89.808594 63.519531 89.816406 63.285156 C 89.824219 63.054688 90.011719 62.875 90.238281 62.875 C 90.246094 62.875 90.25 62.875 90.253906 62.875 L 107.242188 63.382812 C 107.476562 63.386719 107.660156 63.582031 107.652344 63.816406 C 107.644531 64.046875 107.457031 64.226562 107.230469 64.226562 Z M 107.230469 64.226562 " fill-opacity="1" fill-rule="nonzero"/><path fill="#eabb9b" d="M 107.113281 65.230469 C 107.90625 65.253906 108.5625 64.632812 108.585938 63.84375 C 108.613281 63.054688 107.992188 62.394531 107.199219 62.371094 C 106.410156 62.347656 105.753906 62.96875 105.726562 63.757812 C 105.703125 64.546875 106.324219 65.207031 107.113281 65.230469 Z M 107.113281 65.230469 " fill-opacity="1" fill-rule="nonzero"/><path fill="#eabb9b" d="M 108.285156 57.675781 C 108.15625 57.675781 108.027344 57.617188 107.945312 57.507812 C 107.804688 57.320312 107.84375 57.054688 108.03125 56.914062 L 118.082031 49.410156 C 118.269531 49.269531 118.535156 49.308594 118.675781 49.496094 C 118.816406 49.683594 118.777344 49.949219 118.589844 50.089844 L 108.535156 57.59375 C 108.460938 57.648438 108.371094 57.675781 108.285156 57.675781 Z M 108.285156 57.675781 " fill-opacity="1" fill-rule="nonzero"/><path fill="#eabb9b" d="M 119.136719 50.941406 C 119.769531 50.46875 119.898438 49.570312 119.425781 48.9375 C 118.953125 48.304688 118.058594 48.171875 117.421875 48.648438 C 116.789062 49.121094 116.660156 50.015625 117.132812 50.648438 C 117.605469 51.28125 118.5 51.414062 119.136719 50.941406 Z M 119.136719 50.941406 " fill-opacity="1" fill-rule="nonzero"/><path fill="#eabb9b" d="M 113.621094 60.527344 C 113.496094 60.527344 113.371094 60.472656 113.285156 60.363281 C 113.144531 60.179688 113.179688 59.910156 113.363281 59.769531 L 117.035156 56.929688 C 117.222656 56.789062 117.488281 56.824219 117.628906 57.007812 C 117.773438 57.191406 117.738281 57.457031 117.554688 57.601562 L 113.878906 60.4375 C 113.800781 60.496094 113.710938 60.527344 113.621094 60.527344 Z M 113.621094 60.527344 " fill-opacity="1" fill-rule="nonzero"/><path fill="#eabb9b" d="M 118.113281 58.441406 C 118.742188 57.957031 118.855469 57.0625 118.371094 56.433594 C 117.890625 55.808594 116.992188 55.695312 116.367188 56.175781 C 115.738281 56.660156 115.625 57.558594 116.109375 58.183594 C 116.589844 58.808594 117.488281 58.921875 118.113281 58.441406 Z M 118.113281 58.441406 " fill-opacity="1" fill-rule="nonzero"/><path fill="#eabb9b" d="M 116.425781 68.515625 C 116.363281 68.515625 116.296875 68.503906 116.238281 68.472656 L 107.609375 64.15625 C 107.398438 64.050781 107.316406 63.796875 107.417969 63.589844 C 107.523438 63.378906 107.777344 63.296875 107.988281 63.398438 L 116.617188 67.714844 C 116.824219 67.820312 116.910156 68.074219 116.804688 68.28125 C 116.730469 68.429688 116.582031 68.515625 116.425781 68.515625 Z M 116.425781 68.515625 " fill-opacity="1" fill-rule="nonzero"/><path fill="#eabb9b" d="M 115.722656 69.339844 C 116.429688 69.695312 117.289062 69.40625 117.644531 68.703125 C 117.996094 67.996094 117.707031 67.136719 117.003906 66.78125 C 116.296875 66.429688 115.4375 66.714844 115.082031 67.421875 C 114.730469 68.128906 115.015625 68.988281 115.722656 69.339844 Z M 115.722656 69.339844 " fill-opacity="1" fill-rule="nonzero"/><path fill="#eabb9b" d="M 77.246094 27.421875 L 76.855469 27.421875 C 76.621094 27.421875 76.433594 27.234375 76.433594 27 C 76.433594 26.765625 76.621094 26.578125 76.855469 26.578125 L 76.898438 26.578125 L 92.285156 11.1875 C 92.453125 11.023438 92.71875 11.023438 92.882812 11.1875 C 93.046875 11.351562 93.046875 11.621094 92.882812 11.785156 Z M 77.246094 27.421875 " fill-opacity="1" fill-rule="nonzero"/><path fill="#eabb9b" d="M 93.542969 12.550781 C 94.101562 11.992188 94.101562 11.085938 93.542969 10.523438 C 92.988281 9.96875 92.082031 9.96875 91.519531 10.523438 C 90.964844 11.082031 90.964844 11.988281 91.519531 12.550781 C 92.078125 13.105469 92.984375 13.105469 93.542969 12.550781 Z M 93.542969 12.550781 " fill-opacity="1" fill-rule="nonzero"/><path fill="#eabb9b" d="M 79.230469 31.742188 C 79.121094 31.742188 79.011719 31.699219 78.933594 31.617188 C 78.765625 31.453125 78.765625 31.183594 78.933594 31.019531 L 88.226562 21.726562 C 88.390625 21.558594 88.660156 21.558594 88.824219 21.726562 C 88.988281 21.890625 88.988281 22.15625 88.824219 22.324219 L 79.527344 31.617188 C 79.445312 31.699219 79.339844 31.742188 79.230469 31.742188 Z M 79.230469 31.742188 " fill-opacity="1" fill-rule="nonzero"/><path fill="#eabb9b" d="M 89.484375 23.085938 C 90.042969 22.527344 90.042969 21.621094 89.484375 21.0625 C 88.929688 20.5 88.023438 20.503906 87.460938 21.0625 C 86.902344 21.621094 86.902344 22.527344 87.460938 23.085938 C 88.019531 23.644531 88.925781 23.644531 89.484375 23.085938 Z M 89.484375 23.085938 " fill-opacity="1" fill-rule="nonzero"/><path fill="#eabb9b" d="M 72.105469 26.773438 C 71.988281 26.773438 71.871094 26.726562 71.785156 26.628906 C 71.632812 26.453125 71.652344 26.1875 71.824219 26.035156 L 73.542969 24.53125 L 81.207031 16.867188 C 81.371094 16.703125 81.640625 16.703125 81.804688 16.867188 C 81.96875 17.03125 81.96875 17.300781 81.804688 17.464844 L 74.109375 25.15625 L 72.382812 26.667969 C 72.300781 26.738281 72.203125 26.773438 72.105469 26.773438 Z M 72.105469 26.773438 " fill-opacity="1" fill-rule="nonzero"/><path fill="#eabb9b" d="M 82.46875 18.226562 C 83.027344 17.671875 83.027344 16.765625 82.46875 16.203125 C 81.910156 15.644531 81.003906 15.648438 80.445312 16.203125 C 79.882812 16.761719 79.886719 17.667969 80.445312 18.226562 C 81 18.789062 81.90625 18.785156 82.46875 18.226562 Z M 82.46875 18.226562 " fill-opacity="1" fill-rule="nonzero"/><path fill="#eabb9b" d="M 81.828125 16.917969 C 81.59375 16.917969 81.40625 16.730469 81.40625 16.496094 L 81.40625 9.640625 C 81.40625 9.40625 81.59375 9.21875 81.828125 9.21875 C 82.0625 9.21875 82.253906 9.40625 82.253906 9.640625 L 82.253906 16.496094 C 82.253906 16.730469 82.0625 16.917969 81.828125 16.917969 Z M 81.828125 16.917969 " fill-opacity="1" fill-rule="nonzero"/><path fill="#eabb9b" d="M 83.257812 9.710938 C 83.257812 8.921875 82.617188 8.28125 81.828125 8.28125 C 81.039062 8.28125 80.398438 8.921875 80.398438 9.710938 C 80.398438 10.5 81.039062 11.140625 81.828125 11.140625 C 82.617188 11.140625 83.257812 10.5 83.257812 9.710938 Z M 83.257812 9.710938 " fill-opacity="1" fill-rule="nonzero"/><path fill="#eabb9b" d="M 92.8125 10.863281 C 92.578125 10.863281 92.390625 10.671875 92.390625 10.4375 L 92.390625 5.464844 C 92.390625 5.230469 92.578125 5.042969 92.8125 5.042969 C 93.046875 5.042969 93.234375 5.230469 93.234375 5.464844 L 93.234375 10.4375 C 93.234375 10.671875 93.046875 10.863281 92.8125 10.863281 Z M 92.8125 10.863281 " fill-opacity="1" fill-rule="nonzero"/><path fill="#eabb9b" d="M 94.242188 5.535156 C 94.242188 4.746094 93.601562 4.105469 92.8125 4.105469 C 92.023438 4.105469 91.382812 4.746094 91.382812 5.535156 C 91.382812 6.324219 92.023438 6.964844 92.8125 6.964844 C 93.601562 6.964844 94.242188 6.324219 94.242188 5.535156 Z M 94.242188 5.535156 " fill-opacity="1" fill-rule="nonzero"/><path fill="#eabb9b" d="M 91.398438 24.59375 C 91.289062 24.59375 91.179688 24.554688 91.101562 24.472656 L 88.941406 22.3125 C 88.777344 22.148438 88.777344 21.878906 88.941406 21.714844 C 89.105469 21.550781 89.375 21.550781 89.539062 21.714844 L 91.695312 23.875 C 91.863281 24.039062 91.863281 24.308594 91.695312 24.472656 C 91.613281 24.554688 91.507812 24.59375 91.398438 24.59375 Z M 91.398438 24.59375 " fill-opacity="1" fill-rule="nonzero"/><path fill="#eabb9b" d="M 90.335938 25.132812 C 90.894531 25.691406 91.800781 25.691406 92.359375 25.132812 C 92.917969 24.574219 92.917969 23.667969 92.359375 23.109375 C 91.800781 22.550781 90.894531 22.550781 90.335938 23.109375 C 89.777344 23.667969 89.777344 24.574219 90.335938 25.132812 Z M 90.335938 25.132812 " fill-opacity="1" fill-rule="nonzero"/><path fill="#eabb9b" d="M 56.34375 26.988281 C 56.109375 26.988281 55.921875 26.800781 55.921875 26.566406 L 55.921875 9.355469 C 55.921875 9.121094 56.109375 8.929688 56.34375 8.929688 C 56.578125 8.929688 56.765625 9.121094 56.765625 9.355469 L 56.765625 26.566406 C 56.765625 26.800781 56.578125 26.988281 56.34375 26.988281 Z M 56.34375 26.988281 " fill-opacity="1" fill-rule="nonzero"/><path fill="#eabb9b" d="M 57.773438 9.425781 C 57.773438 8.636719 57.132812 7.996094 56.34375 7.996094 C 55.554688 7.996094 54.914062 8.636719 54.914062 9.425781 C 54.914062 10.214844 55.554688 10.859375 56.34375 10.859375 C 57.132812 10.859375 57.773438 10.214844 57.773438 9.425781 Z M 57.773438 9.425781 " fill-opacity="1" fill-rule="nonzero"/><path fill="#eabb9b" d="M 52.460938 26.773438 C 52.226562 26.773438 52.035156 26.585938 52.035156 26.351562 L 52.035156 16.050781 C 52.035156 15.816406 52.226562 15.628906 52.460938 15.628906 C 52.691406 15.628906 52.882812 15.816406 52.882812 16.050781 L 52.882812 26.351562 C 52.882812 26.585938 52.691406 26.773438 52.460938 26.773438 Z M 52.460938 26.773438 " fill-opacity="1" fill-rule="nonzero"/><path fill="#eabb9b" d="M 53.890625 16.121094 C 53.890625 15.332031 53.25 14.691406 52.460938 14.691406 C 51.667969 14.691406 51.027344 15.332031 51.027344 16.121094 C 51.027344 16.910156 51.667969 17.554688 52.460938 17.554688 C 53.25 17.554688 53.890625 16.910156 53.890625 16.121094 Z M 53.890625 16.121094 " fill-opacity="1" fill-rule="nonzero"/><path fill="#eabb9b" d="M 59.582031 26.558594 C 59.347656 26.558594 59.160156 26.371094 59.160156 26.136719 L 59.160156 6.703125 L 64.628906 1.234375 C 64.792969 1.070312 65.0625 1.070312 65.226562 1.234375 C 65.390625 1.398438 65.390625 1.667969 65.226562 1.832031 L 60.007812 7.050781 L 60.007812 26.136719 C 60.007812 26.371094 59.816406 26.558594 59.582031 26.558594 Z M 59.582031 26.558594 " fill-opacity="1" fill-rule="nonzero"/><path fill="#eabb9b" d="M 65.890625 2.59375 C 66.449219 2.035156 66.449219 1.128906 65.890625 0.570312 C 65.332031 0.0117188 64.425781 0.0117188 63.867188 0.570312 C 63.308594 1.128906 63.308594 2.035156 63.867188 2.59375 C 64.425781 3.152344 65.332031 3.152344 65.890625 2.59375 Z M 65.890625 2.59375 " fill-opacity="1" fill-rule="nonzero"/><path fill="#eabb9b" d="M 56.199219 8.703125 C 56.09375 8.703125 55.984375 8.660156 55.902344 8.578125 L 51.636719 4.3125 C 51.472656 4.148438 51.472656 3.878906 51.636719 3.714844 C 51.800781 3.550781 52.070312 3.550781 52.234375 3.714844 L 56.5 7.980469 C 56.664062 8.144531 56.664062 8.414062 56.5 8.578125 C 56.417969 8.660156 56.308594 8.703125 56.199219 8.703125 Z M 56.199219 8.703125 " fill-opacity="1" fill-rule="nonzero"/><path fill="#eabb9b" d="M 52.996094 3.054688 C 52.4375 2.496094 51.53125 2.496094 50.972656 3.054688 C 50.414062 3.609375 50.414062 4.515625 50.972656 5.078125 C 51.53125 5.636719 52.4375 5.636719 52.996094 5.078125 C 53.554688 4.519531 53.554688 3.613281 52.996094 3.054688 Z M 52.996094 3.054688 " fill-opacity="1" fill-rule="nonzero"/><path fill="#eabb9b" d="M 51.960938 15.820312 C 51.851562 15.820312 51.746094 15.78125 51.664062 15.699219 L 48.878906 12.914062 C 48.714844 12.75 48.714844 12.480469 48.878906 12.316406 C 49.042969 12.152344 49.3125 12.152344 49.476562 12.316406 L 52.261719 15.101562 C 52.425781 15.265625 52.425781 15.53125 52.261719 15.699219 C 52.175781 15.78125 52.070312 15.820312 51.960938 15.820312 Z M 51.960938 15.820312 " fill-opacity="1" fill-rule="nonzero"/><path fill="#eabb9b" d="M 50.238281 11.652344 C 49.679688 11.097656 48.773438 11.097656 48.214844 11.652344 C 47.65625 12.210938 47.65625 13.117188 48.214844 13.675781 C 48.773438 14.234375 49.679688 14.234375 50.238281 13.675781 C 50.796875 13.121094 50.796875 12.214844 50.238281 11.652344 Z M 50.238281 11.652344 " fill-opacity="1" fill-rule="nonzero"/><path fill="#eabb9b" d="M 25.039062 56.785156 L 7.394531 56.785156 C 7.164062 56.785156 6.972656 56.59375 6.972656 56.363281 C 6.972656 56.128906 7.164062 55.9375 7.394531 55.9375 L 25.039062 55.9375 C 25.273438 55.9375 25.464844 56.128906 25.464844 56.363281 C 25.464844 56.59375 25.273438 56.785156 25.039062 56.785156 Z M 25.039062 56.785156 " fill-opacity="1" fill-rule="nonzero"/><path fill="#eabb9b" d="M 7.464844 54.929688 C 6.675781 54.929688 6.035156 55.574219 6.035156 56.363281 C 6.035156 57.152344 6.675781 57.792969 7.464844 57.792969 C 8.257812 57.792969 8.898438 57.152344 8.898438 56.363281 C 8.898438 55.574219 8.257812 54.929688 7.464844 54.929688 Z M 7.464844 54.929688 " fill-opacity="1" fill-rule="nonzero"/><path fill="#eabb9b" d="M 26.984375 60.453125 L 11.335938 60.453125 C 11.101562 60.453125 10.914062 60.265625 10.914062 60.03125 C 10.914062 59.796875 11.101562 59.609375 11.335938 59.609375 L 26.984375 59.609375 C 27.21875 59.609375 27.40625 59.796875 27.40625 60.03125 C 27.40625 60.265625 27.21875 60.453125 26.984375 60.453125 Z M 26.984375 60.453125 " fill-opacity="1" fill-rule="nonzero"/><path fill="#eabb9b" d="M 11.40625 58.601562 C 10.617188 58.601562 9.976562 59.242188 9.976562 60.03125 C 9.976562 60.820312 10.617188 61.460938 11.40625 61.460938 C 12.195312 61.460938 12.835938 60.820312 12.835938 60.03125 C 12.835938 59.242188 12.195312 58.601562 11.40625 58.601562 Z M 11.40625 58.601562 " fill-opacity="1" fill-rule="nonzero"/><path fill="#eabb9b" d="M 27.199219 53.332031 L 10.414062 53.332031 C 10.179688 53.332031 9.988281 53.140625 9.988281 52.90625 C 9.988281 52.671875 10.179688 52.484375 10.414062 52.484375 L 27.199219 52.484375 C 27.433594 52.484375 27.621094 52.671875 27.621094 52.90625 C 27.621094 53.140625 27.433594 53.332031 27.199219 53.332031 Z M 27.199219 53.332031 " fill-opacity="1" fill-rule="nonzero"/><path fill="#eabb9b" d="M 10.484375 51.476562 C 9.691406 51.476562 9.050781 52.117188 9.050781 52.90625 C 9.050781 53.695312 9.695312 54.335938 10.484375 54.335938 C 11.273438 54.335938 11.914062 53.695312 11.914062 52.90625 C 11.914062 52.117188 11.273438 51.476562 10.484375 51.476562 Z M 10.484375 51.476562 " fill-opacity="1" fill-rule="nonzero"/><path fill="#eabb9b" d="M 27.128906 89.023438 C 27.019531 89.023438 26.914062 88.980469 26.832031 88.898438 C 26.664062 88.734375 26.664062 88.464844 26.832031 88.300781 L 37.695312 77.4375 C 37.859375 77.273438 38.128906 77.273438 38.292969 77.4375 C 38.457031 77.601562 38.457031 77.871094 38.292969 78.035156 L 27.429688 88.898438 C 27.34375 88.980469 27.238281 89.023438 27.128906 89.023438 Z M 27.128906 89.023438 " fill-opacity="1" fill-rule="nonzero"/><path fill="#eabb9b" d="M 26.167969 87.539062 C 25.609375 88.097656 25.609375 89.003906 26.167969 89.5625 C 26.726562 90.121094 27.632812 90.121094 28.191406 89.5625 C 28.75 89.003906 28.75 88.097656 28.191406 87.539062 C 27.632812 86.980469 26.726562 86.980469 26.167969 87.539062 Z M 26.167969 87.539062 " fill-opacity="1" fill-rule="nonzero"/><path fill="#eabb9b" d="M 26.972656 94.144531 C 26.863281 94.144531 26.753906 94.105469 26.671875 94.019531 C 26.507812 93.855469 26.507812 93.589844 26.671875 93.421875 L 39.207031 80.890625 C 39.371094 80.726562 39.636719 80.726562 39.804688 80.890625 C 39.96875 81.054688 39.96875 81.324219 39.804688 81.488281 L 27.269531 94.019531 C 27.1875 94.105469 27.082031 94.144531 26.972656 94.144531 Z M 26.972656 94.144531 " fill-opacity="1" fill-rule="nonzero"/><path fill="#eabb9b" d="M 26.011719 92.660156 C 25.453125 93.21875 25.453125 94.125 26.011719 94.683594 C 26.570312 95.242188 27.476562 95.242188 28.035156 94.683594 C 28.59375 94.125 28.59375 93.21875 28.035156 92.660156 C 27.476562 92.101562 26.570312 92.101562 26.011719 92.660156 Z M 26.011719 92.660156 " fill-opacity="1" fill-rule="nonzero"/><path fill="#eabb9b" d="M 35.601562 90.050781 C 35.492188 90.050781 35.382812 90.007812 35.300781 89.925781 C 35.136719 89.761719 35.136719 89.492188 35.300781 89.328125 L 40.933594 83.695312 C 41.097656 83.53125 41.367188 83.53125 41.53125 83.695312 C 41.695312 83.863281 41.695312 84.128906 41.53125 84.292969 L 35.898438 89.925781 C 35.816406 90.007812 35.710938 90.050781 35.601562 90.050781 Z M 35.601562 90.050781 " fill-opacity="1" fill-rule="nonzero"/><path fill="#eabb9b" d="M 34.640625 88.566406 C 34.082031 89.125 34.082031 90.03125 34.640625 90.589844 C 35.199219 91.148438 36.105469 91.148438 36.664062 90.589844 C 37.222656 90.03125 37.222656 89.125 36.664062 88.566406 C 36.105469 88.007812 35.199219 88.007812 34.640625 88.566406 Z M 34.640625 88.566406 " fill-opacity="1" fill-rule="nonzero"/><path fill="#eabb9b" d="M 65.410156 99.605469 C 65.179688 99.605469 64.988281 99.414062 64.988281 99.179688 L 64.988281 86.585938 C 64.988281 86.351562 65.179688 86.164062 65.410156 86.164062 C 65.644531 86.164062 65.835938 86.351562 65.835938 86.585938 L 65.835938 99.179688 C 65.835938 99.414062 65.644531 99.605469 65.410156 99.605469 Z M 65.410156 99.605469 " fill-opacity="1" fill-rule="nonzero"/><path fill="#eabb9b" d="M 63.980469 99.109375 C 63.980469 99.898438 64.621094 100.539062 65.410156 100.539062 C 66.203125 100.539062 66.84375 99.898438 66.84375 99.109375 C 66.84375 98.320312 66.203125 97.679688 65.410156 97.679688 C 64.621094 97.679688 63.980469 98.320312 63.980469 99.109375 Z M 63.980469 99.109375 " fill-opacity="1" fill-rule="nonzero"/><path fill="#eabb9b" d="M 67.570312 96.230469 C 67.335938 96.230469 67.148438 96.039062 67.148438 95.808594 L 67.148438 86.585938 C 67.148438 86.351562 67.335938 86.164062 67.570312 86.164062 C 67.804688 86.164062 67.992188 86.351562 67.992188 86.585938 L 67.992188 95.808594 C 67.992188 96.039062 67.804688 96.230469 67.570312 96.230469 Z M 67.570312 96.230469 " fill-opacity="1" fill-rule="nonzero"/><path fill="#eabb9b" d="M 68.324219 94.523438 C 68.484375 94.625 68.621094 94.75 68.730469 94.90625 C 68.84375 95.058594 68.917969 95.226562 68.964844 95.414062 C 69.007812 95.597656 69.011719 95.78125 68.984375 95.96875 C 68.953125 96.15625 68.886719 96.332031 68.789062 96.492188 C 68.6875 96.652344 68.5625 96.789062 68.40625 96.902344 C 68.253906 97.011719 68.085938 97.089844 67.898438 97.132812 C 67.714844 97.175781 67.527344 97.183594 67.34375 97.152344 C 67.15625 97.121094 66.980469 97.058594 66.820312 96.957031 C 66.65625 96.859375 66.523438 96.730469 66.410156 96.578125 C 66.300781 96.421875 66.222656 96.253906 66.179688 96.070312 C 66.136719 95.882812 66.128906 95.699219 66.160156 95.511719 C 66.191406 95.324219 66.253906 95.148438 66.355469 94.988281 C 66.453125 94.828125 66.582031 94.691406 66.734375 94.582031 C 66.890625 94.46875 67.058594 94.390625 67.242188 94.347656 C 67.425781 94.304688 67.613281 94.296875 67.800781 94.328125 C 67.988281 94.359375 68.160156 94.425781 68.324219 94.523438 Z M 68.324219 94.523438 " fill-opacity="1" fill-rule="nonzero"/><path fill="#eabb9b" d="M 70.160156 104.828125 C 69.925781 104.828125 69.738281 104.636719 69.738281 104.402344 L 69.738281 86.371094 C 69.738281 86.136719 69.925781 85.949219 70.160156 85.949219 C 70.394531 85.949219 70.585938 86.136719 70.585938 86.371094 L 70.585938 104.402344 C 70.585938 104.636719 70.394531 104.828125 70.160156 104.828125 Z M 70.160156 104.828125 " fill-opacity="1" fill-rule="nonzero"/><path fill="#eabb9b" d="M 71.484375 103.785156 C 71.558594 103.960938 71.59375 104.140625 71.59375 104.332031 C 71.59375 104.523438 71.558594 104.703125 71.484375 104.878906 C 71.410156 105.054688 71.308594 105.210938 71.175781 105.34375 C 71.039062 105.476562 70.886719 105.582031 70.710938 105.652344 C 70.535156 105.726562 70.351562 105.761719 70.164062 105.761719 C 69.972656 105.761719 69.789062 105.726562 69.617188 105.652344 C 69.441406 105.582031 69.285156 105.476562 69.152344 105.34375 C 69.015625 105.210938 68.914062 105.054688 68.839844 104.878906 C 68.769531 104.703125 68.730469 104.523438 68.730469 104.332031 C 68.730469 104.140625 68.769531 103.960938 68.839844 103.785156 C 68.914062 103.609375 69.015625 103.453125 69.152344 103.320312 C 69.285156 103.1875 69.441406 103.082031 69.617188 103.011719 C 69.789062 102.9375 69.972656 102.902344 70.164062 102.902344 C 70.351562 102.902344 70.535156 102.9375 70.710938 103.011719 C 70.886719 103.082031 71.039062 103.1875 71.175781 103.320312 C 71.308594 103.453125 71.410156 103.609375 71.484375 103.785156 Z M 71.484375 103.785156 " fill-opacity="1" fill-rule="nonzero"/><path fill="#eabb9b" d="M 97.359375 93.261719 C 97.25 93.261719 97.140625 93.222656 97.058594 93.140625 L 81.523438 77.601562 C 81.355469 77.4375 81.355469 77.167969 81.523438 77.003906 C 81.6875 76.839844 81.953125 76.839844 82.121094 77.003906 L 97.65625 92.542969 C 97.820312 92.707031 97.820312 92.972656 97.65625 93.140625 C 97.574219 93.222656 97.46875 93.261719 97.359375 93.261719 Z M 97.359375 93.261719 " fill-opacity="1" fill-rule="nonzero"/><path fill="#eabb9b" d="M 96.296875 93.800781 C 96.855469 94.359375 97.761719 94.359375 98.320312 93.800781 C 98.878906 93.242188 98.878906 92.335938 98.320312 91.777344 C 97.761719 91.21875 96.855469 91.21875 96.296875 91.777344 C 95.734375 92.335938 95.738281 93.242188 96.296875 93.800781 Z M 96.296875 93.800781 " fill-opacity="1" fill-rule="nonzero"/><path fill="#eabb9b" d="M 96.429688 89.3125 C 96.320312 89.3125 96.210938 89.273438 96.132812 89.1875 L 82.816406 75.875 C 82.652344 75.710938 82.652344 75.441406 82.816406 75.277344 C 82.980469 75.113281 83.25 75.113281 83.414062 75.277344 L 96.726562 88.589844 C 96.894531 88.757812 96.894531 89.023438 96.726562 89.1875 C 96.644531 89.273438 96.539062 89.3125 96.429688 89.3125 Z M 96.429688 89.3125 " fill-opacity="1" fill-rule="nonzero"/><path fill="#eabb9b" d="M 95.367188 89.851562 C 95.925781 90.410156 96.832031 90.410156 97.390625 89.851562 C 97.953125 89.292969 97.949219 88.386719 97.390625 87.828125 C 96.835938 87.269531 95.929688 87.269531 95.367188 87.828125 C 94.808594 88.386719 94.808594 89.292969 95.367188 89.851562 Z M 95.367188 89.851562 " fill-opacity="1" fill-rule="nonzero"/><path fill="#eabb9b" d="M 93.847656 81.984375 C 93.742188 81.984375 93.632812 81.941406 93.550781 81.859375 L 84.113281 72.421875 C 83.949219 72.253906 83.949219 71.988281 84.113281 71.824219 C 84.277344 71.660156 84.546875 71.660156 84.710938 71.824219 L 94.148438 81.261719 C 94.3125 81.425781 94.3125 81.695312 94.148438 81.859375 C 94.066406 81.941406 93.957031 81.984375 93.847656 81.984375 Z M 93.847656 81.984375 " fill-opacity="1" fill-rule="nonzero"/><path fill="#eabb9b" d="M 92.785156 82.519531 C 93.34375 83.078125 94.25 83.078125 94.808594 82.519531 C 95.371094 81.964844 95.367188 81.058594 94.808594 80.496094 C 94.253906 79.9375 93.347656 79.9375 92.785156 80.496094 C 92.226562 81.054688 92.230469 81.960938 92.785156 82.519531 Z M 92.785156 82.519531 " fill-opacity="1" fill-rule="nonzero"/><path fill="#eabb9b" d="M 33.246094 41.671875 C 33.136719 41.671875 33.027344 41.632812 32.945312 41.546875 L 18.792969 27.394531 C 18.628906 27.230469 18.628906 26.960938 18.792969 26.796875 C 18.957031 26.632812 19.226562 26.632812 19.390625 26.796875 L 33.542969 40.949219 C 33.707031 41.117188 33.707031 41.382812 33.542969 41.546875 C 33.460938 41.632812 33.351562 41.671875 33.246094 41.671875 Z M 33.246094 41.671875 " fill-opacity="1" fill-rule="nonzero"/><path fill="#eabb9b" d="M 20.152344 26.132812 C 19.59375 25.578125 18.6875 25.578125 18.128906 26.132812 C 17.570312 26.691406 17.570312 27.597656 18.128906 28.160156 C 18.6875 28.714844 19.59375 28.714844 20.152344 28.160156 C 20.710938 27.601562 20.710938 26.695312 20.152344 26.132812 Z M 20.152344 26.132812 " fill-opacity="1" fill-rule="nonzero"/><path fill="#eabb9b" d="M 34.972656 39.730469 C 34.863281 39.730469 34.753906 39.6875 34.671875 39.605469 L 20.945312 25.878906 C 20.78125 25.714844 20.78125 25.445312 20.945312 25.28125 C 21.109375 25.117188 21.378906 25.117188 21.542969 25.28125 L 35.269531 39.007812 C 35.433594 39.171875 35.433594 39.441406 35.269531 39.605469 C 35.1875 39.6875 35.078125 39.730469 34.972656 39.730469 Z M 34.972656 39.730469 " fill-opacity="1" fill-rule="nonzero"/><path fill="#eabb9b" d="M 22.308594 24.617188 C 21.75 24.058594 20.84375 24.058594 20.28125 24.617188 C 19.726562 25.175781 19.726562 26.082031 20.28125 26.640625 C 20.839844 27.199219 21.746094 27.199219 22.308594 26.640625 C 22.863281 26.082031 22.863281 25.175781 22.308594 24.617188 Z M 22.308594 24.617188 " fill-opacity="1" fill-rule="nonzero"/><path fill="#eabb9b" d="M 36.699219 38 C 36.589844 38 36.480469 37.960938 36.398438 37.878906 L 27.34375 28.820312 C 27.179688 28.65625 27.179688 28.390625 27.34375 28.226562 C 27.511719 28.058594 27.777344 28.058594 27.941406 28.226562 L 36.996094 37.28125 C 37.164062 37.445312 37.164062 37.710938 36.996094 37.878906 C 36.914062 37.960938 36.808594 38 36.699219 38 Z M 36.699219 38 " fill-opacity="1" fill-rule="nonzero"/><path fill="#eabb9b" d="M 28.707031 27.5625 C 28.148438 27.003906 27.242188 27.003906 26.683594 27.5625 C 26.125 28.121094 26.125 29.027344 26.683594 29.585938 C 27.242188 30.144531 28.148438 30.144531 28.707031 29.585938 C 29.265625 29.03125 29.265625 28.125 28.707031 27.5625 Z M 28.707031 27.5625 " fill-opacity="1" fill-rule="nonzero"/><path fill="#eabb9b" d="M 27.324219 28.214844 C 27.261719 28.214844 27.195312 28.199219 27.136719 28.167969 C 26.929688 28.066406 26.84375 27.8125 26.949219 27.601562 L 29.074219 23.351562 C 29.179688 23.140625 29.433594 23.058594 29.640625 23.160156 C 29.847656 23.265625 29.933594 23.519531 29.828125 23.726562 L 27.703125 27.980469 C 27.628906 28.128906 27.480469 28.214844 27.324219 28.214844 Z M 27.324219 28.214844 " fill-opacity="1" fill-rule="nonzero"/><path fill="#eabb9b" d="M 30.699219 24.242188 C 31.054688 23.535156 30.765625 22.675781 30.058594 22.324219 C 29.351562 21.96875 28.492188 22.257812 28.140625 22.960938 C 27.785156 23.667969 28.074219 24.527344 28.78125 24.882812 C 29.484375 25.234375 30.34375 24.949219 30.699219 24.242188 Z M 30.699219 24.242188 " fill-opacity="1" fill-rule="nonzero"/><path fill="#eabb9b" d="M 20.996094 25.054688 C 20.9375 25.054688 20.871094 25.042969 20.8125 25.015625 C 20.601562 24.910156 20.515625 24.660156 20.617188 24.449219 L 22.902344 19.769531 C 23.003906 19.558594 23.257812 19.472656 23.464844 19.574219 C 23.675781 19.675781 23.765625 19.929688 23.660156 20.140625 L 21.378906 24.820312 C 21.304688 24.96875 21.152344 25.058594 20.996094 25.058594 Z M 20.996094 25.054688 " fill-opacity="1" fill-rule="nonzero"/><path fill="#eabb9b" d="M 24.535156 20.644531 C 24.882812 19.933594 24.585938 19.078125 23.875 18.734375 C 23.167969 18.386719 22.308594 18.679688 21.964844 19.390625 C 21.617188 20.101562 21.914062 20.957031 22.621094 21.304688 C 23.332031 21.648438 24.191406 21.355469 24.535156 20.644531 Z M 24.535156 20.644531 " fill-opacity="1" fill-rule="nonzero"/><path fill="#eabb9b" d="M 17.839844 27.488281 C 17.824219 27.488281 17.808594 27.488281 17.792969 27.484375 L 11.515625 26.777344 C 11.28125 26.75 11.117188 26.539062 11.140625 26.308594 C 11.167969 26.074219 11.378906 25.910156 11.609375 25.9375 L 17.886719 26.644531 C 18.121094 26.671875 18.289062 26.882812 18.261719 27.113281 C 18.238281 27.328125 18.054688 27.488281 17.839844 27.488281 Z M 17.839844 27.488281 " fill-opacity="1" fill-rule="nonzero"/><path fill="#eabb9b" d="M 11.792969 24.941406 C 11.011719 24.851562 10.300781 25.414062 10.210938 26.203125 C 10.125 26.988281 10.6875 27.695312 11.472656 27.785156 C 12.257812 27.875 12.96875 27.308594 13.054688 26.523438 C 13.144531 25.738281 12.582031 25.03125 11.796875 24.941406 Z M 11.792969 24.941406 " fill-opacity="1" fill-rule="nonzero"/><path fill="#eabb9b" d="M 9.769531 53.402344 C 9.65625 53.402344 9.542969 53.359375 9.460938 53.269531 C 9.300781 53.101562 9.308594 52.832031 9.476562 52.671875 L 14.101562 48.28125 C 14.273438 48.121094 14.539062 48.128906 14.699219 48.296875 C 14.863281 48.464844 14.855469 48.734375 14.683594 48.894531 L 10.058594 53.285156 C 9.976562 53.363281 9.871094 53.402344 9.769531 53.402344 Z M 9.769531 53.402344 " fill-opacity="1" fill-rule="nonzero"/><path fill="#eabb9b" d="M 15.328125 49.675781 C 15.902344 49.132812 15.925781 48.226562 15.382812 47.652344 C 14.839844 47.078125 13.933594 47.054688 13.359375 47.601562 C 12.785156 48.144531 12.761719 49.046875 13.308594 49.621094 C 13.851562 50.195312 14.753906 50.21875 15.328125 49.675781 Z M 15.328125 49.675781 " fill-opacity="1" fill-rule="nonzero"/><path fill="#eabb9b" d="M 1.996094 59.878906 C 1.855469 59.878906 1.71875 59.808594 1.636719 59.679688 C 1.515625 59.480469 1.574219 59.21875 1.773438 59.097656 L 6.375 56.21875 C 6.574219 56.09375 6.835938 56.15625 6.957031 56.351562 C 7.082031 56.550781 7.019531 56.8125 6.824219 56.933594 L 2.21875 59.8125 C 2.152344 59.855469 2.074219 59.878906 1.996094 59.878906 Z M 1.996094 59.878906 " fill-opacity="1" fill-rule="nonzero"/><g clip-path="url(#69c36964fc)"><path fill="#eabb9b" d="M 1.300781 58.203125 C 0.628906 58.621094 0.425781 59.503906 0.84375 60.175781 C 1.261719 60.847656 2.144531 61.050781 2.816406 60.628906 C 3.484375 60.210938 3.691406 59.328125 3.269531 58.660156 C 2.851562 57.988281 1.96875 57.785156 1.300781 58.203125 Z M 1.300781 58.203125 " fill-opacity="1" fill-rule="nonzero"/></g><path fill="#eabb9b" d="M 14.808594 64.015625 C 14.707031 64.015625 14.605469 63.976562 14.523438 63.902344 L 10.488281 60.214844 C 10.316406 60.058594 10.304688 59.789062 10.460938 59.617188 C 10.621094 59.445312 10.886719 59.433594 11.058594 59.589844 L 15.09375 63.277344 C 15.265625 63.4375 15.277344 63.703125 15.121094 63.875 C 15.039062 63.96875 14.921875 64.015625 14.808594 64.015625 Z M 14.808594 64.015625 " fill-opacity="1" fill-rule="nonzero"/><path fill="#eabb9b" d="M 13.789062 64.597656 C 14.371094 65.132812 15.277344 65.09375 15.808594 64.507812 C 16.34375 63.925781 16.300781 63.019531 15.71875 62.488281 C 15.136719 61.957031 14.230469 61.996094 13.699219 62.578125 C 13.167969 63.160156 13.207031 64.066406 13.789062 64.597656 Z M 13.789062 64.597656 " fill-opacity="1" fill-rule="nonzero"/><path fill="#eabb9b" d="M 26.882812 89.253906 C 26.6875 89.253906 26.511719 89.117188 26.46875 88.921875 L 25.472656 84.492188 C 25.421875 84.261719 25.566406 84.039062 25.792969 83.988281 C 26.023438 83.9375 26.246094 84.078125 26.300781 84.308594 L 27.296875 88.738281 C 27.347656 88.964844 27.203125 89.191406 26.976562 89.242188 C 26.945312 89.25 26.914062 89.253906 26.882812 89.253906 Z M 26.882812 89.253906 " fill-opacity="1" fill-rule="nonzero"/><path fill="#eabb9b" d="M 27.296875 84.15625 C 27.121094 83.382812 26.355469 82.898438 25.585938 83.074219 C 24.816406 83.246094 24.332031 84.011719 24.503906 84.78125 C 24.675781 85.550781 25.441406 86.039062 26.214844 85.863281 C 26.984375 85.691406 27.46875 84.925781 27.296875 84.15625 Z M 27.296875 84.15625 " fill-opacity="1" fill-rule="nonzero"/><path fill="#eabb9b" d="M 29.925781 96.308594 C 29.871094 96.308594 29.8125 96.296875 29.757812 96.273438 L 26.472656 94.867188 C 26.261719 94.773438 26.160156 94.523438 26.25 94.308594 C 26.34375 94.097656 26.589844 93.996094 26.808594 94.085938 L 30.09375 95.496094 C 30.304688 95.585938 30.40625 95.835938 30.316406 96.050781 C 30.246094 96.210938 30.089844 96.308594 29.925781 96.308594 Z M 29.925781 96.308594 " fill-opacity="1" fill-rule="nonzero"/><path fill="#eabb9b" d="M 29.296875 97.171875 C 30.023438 97.484375 30.863281 97.144531 31.175781 96.421875 C 31.488281 95.695312 31.148438 94.851562 30.425781 94.542969 C 29.699219 94.230469 28.855469 94.566406 28.546875 95.292969 C 28.234375 96.019531 28.570312 96.859375 29.296875 97.171875 Z M 29.296875 97.171875 " fill-opacity="1" fill-rule="nonzero"/><path fill="#eabb9b" d="M 39.429688 94.171875 C 39.324219 94.171875 39.214844 94.132812 39.132812 94.046875 L 34.910156 89.828125 C 34.746094 89.664062 34.746094 89.394531 34.910156 89.230469 C 35.078125 89.066406 35.34375 89.066406 35.507812 89.230469 L 39.730469 93.449219 C 39.894531 93.617188 39.894531 93.882812 39.730469 94.046875 C 39.648438 94.132812 39.539062 94.171875 39.429688 94.171875 Z M 39.429688 94.171875 " fill-opacity="1" fill-rule="nonzero"/><path fill="#eabb9b" d="M 38.367188 94.710938 C 38.925781 95.269531 39.832031 95.269531 40.390625 94.710938 C 40.953125 94.152344 40.949219 93.246094 40.390625 92.6875 C 39.835938 92.128906 38.929688 92.128906 38.367188 92.6875 C 37.808594 93.246094 37.8125 94.152344 38.367188 94.710938 Z M 38.367188 94.710938 " fill-opacity="1" fill-rule="nonzero"/><path fill="#eabb9b" d="M 60.367188 99.851562 C 60.140625 99.851562 59.953125 99.675781 59.945312 99.445312 C 59.9375 99.210938 60.121094 99.015625 60.351562 99.007812 L 65.148438 98.839844 C 65.386719 98.832031 65.578125 99.015625 65.585938 99.25 C 65.59375 99.480469 65.410156 99.679688 65.175781 99.683594 L 60.382812 99.851562 C 60.382812 99.851562 60.371094 99.851562 60.367188 99.851562 Z M 60.367188 99.851562 " fill-opacity="1" fill-rule="nonzero"/><path fill="#eabb9b" d="M 60.390625 97.996094 C 59.601562 98.023438 58.984375 98.6875 59.011719 99.476562 C 59.039062 100.265625 59.703125 100.882812 60.492188 100.855469 C 61.28125 100.828125 61.898438 100.164062 61.871094 99.375 C 61.84375 98.585938 61.179688 97.96875 60.390625 97.996094 Z M 60.390625 97.996094 " fill-opacity="1" fill-rule="nonzero"/><path fill="#eabb9b" d="M 70.269531 105.703125 C 70.132812 105.703125 70.003906 105.636719 69.921875 105.519531 C 69.789062 105.324219 69.839844 105.0625 70.03125 104.929688 L 74.304688 102.023438 C 74.496094 101.894531 74.761719 101.941406 74.890625 102.136719 C 75.023438 102.328125 74.972656 102.59375 74.78125 102.722656 L 70.507812 105.628906 C 70.433594 105.679688 70.351562 105.703125 70.269531 105.703125 Z M 70.269531 105.703125 " fill-opacity="1" fill-rule="nonzero"/><path fill="#eabb9b" d="M 75.289062 103.597656 C 75.941406 103.152344 76.113281 102.261719 75.667969 101.609375 C 75.222656 100.957031 74.332031 100.789062 73.679688 101.230469 C 73.027344 101.675781 72.859375 102.566406 73.300781 103.21875 C 73.746094 103.871094 74.636719 104.042969 75.289062 103.597656 Z M 75.289062 103.597656 " fill-opacity="1" fill-rule="nonzero"/><path fill="#eabb9b" d="M 94.882812 81.714844 C 94.746094 81.714844 94.617188 81.648438 94.535156 81.53125 C 94.402344 81.335938 94.449219 81.074219 94.644531 80.941406 L 98.703125 78.152344 C 98.894531 78.019531 99.160156 78.066406 99.292969 78.257812 C 99.425781 78.453125 99.375 78.714844 99.183594 78.847656 L 95.121094 81.640625 C 95.046875 81.691406 94.964844 81.714844 94.882812 81.714844 Z M 94.882812 81.714844 " fill-opacity="1" fill-rule="nonzero"/><path fill="#eabb9b" d="M 99.695312 79.71875 C 100.347656 79.269531 100.511719 78.378906 100.0625 77.726562 C 99.613281 77.078125 98.722656 76.914062 98.074219 77.359375 C 97.421875 77.808594 97.257812 78.699219 97.707031 79.351562 C 98.152344 80 99.042969 80.167969 99.695312 79.71875 Z M 99.695312 79.71875 " fill-opacity="1" fill-rule="nonzero"/><path fill="#eabb9b" d="M 97.464844 88.988281 C 97.367188 88.988281 97.269531 88.953125 97.1875 88.886719 C 97.011719 88.734375 96.992188 88.46875 97.144531 88.292969 L 100.144531 84.789062 C 100.296875 84.609375 100.5625 84.589844 100.742188 84.742188 C 100.917969 84.894531 100.9375 85.160156 100.789062 85.339844 L 97.785156 88.839844 C 97.703125 88.9375 97.582031 88.988281 97.464844 88.988281 Z M 97.464844 88.988281 " fill-opacity="1" fill-rule="nonzero"/><path fill="#eabb9b" d="M 101.503906 86.046875 C 102.019531 85.449219 101.949219 84.546875 101.347656 84.03125 C 100.75 83.519531 99.847656 83.585938 99.332031 84.1875 C 98.820312 84.789062 98.890625 85.691406 99.488281 86.203125 C 100.089844 86.71875 100.992188 86.648438 101.503906 86.046875 Z M 101.503906 86.046875 " fill-opacity="1" fill-rule="nonzero"/><path fill="#eabb9b" d="M 94.441406 96.972656 C 94.328125 96.972656 94.214844 96.925781 94.132812 96.835938 C 93.972656 96.667969 93.984375 96.398438 94.15625 96.238281 L 97.691406 92.953125 C 97.863281 92.796875 98.128906 92.804688 98.289062 92.976562 C 98.449219 93.148438 98.4375 93.414062 98.265625 93.574219 L 94.730469 96.859375 C 94.648438 96.9375 94.546875 96.972656 94.441406 96.972656 Z M 94.441406 96.972656 " fill-opacity="1" fill-rule="nonzero"/><path fill="#eabb9b" d="M 93.519531 95.453125 C 92.941406 95.988281 92.90625 96.894531 93.445312 97.476562 C 93.984375 98.054688 94.890625 98.089844 95.46875 97.550781 C 96.046875 97.011719 96.082031 96.105469 95.542969 95.527344 C 95.007812 94.949219 94.101562 94.914062 93.519531 95.453125 Z M 93.519531 95.453125 " fill-opacity="1" fill-rule="nonzero"/><g clip-path="url(#d2ef9fc3e9)"><path fill="#ffffff" d="M 60.140625 36.082031 C 70.839844 36.082031 79.492188 44.734375 79.492188 55.4375 C 79.492188 59.96875 77.9375 64.128906 75.332031 67.425781 L 72.691406 65.078125 C 71.386719 63.917969 68.945312 62.597656 65.703125 63.160156 L 57.582031 64.195312 C 56.417969 64.34375 55.851562 65.171875 55.980469 65.832031 C 56.050781 66.175781 56.359375 66.472656 57.046875 66.578125 L 62.699219 66.796875 L 65.777344 68.605469 C 66.222656 68.871094 65.933594 69.34375 65.464844 69.125 L 62.417969 67.703125 L 56.546875 67.550781 L 47.035156 65.367188 C 46.085938 65.148438 45.378906 66.765625 46.539062 67.167969 L 57.835938 71.042969 C 58.800781 71.398438 59.429688 71.613281 60.449219 71.574219 L 67.027344 71.324219 C 68.039062 71.285156 68.890625 71.472656 69.699219 72.265625 C 66.878906 73.871094 63.617188 74.789062 60.140625 74.789062 C 49.4375 74.789062 40.78125 66.136719 40.78125 55.4375 C 40.78125 44.734375 49.4375 36.082031 60.140625 36.082031 Z M 60.140625 33.960938 C 48.292969 33.960938 38.664062 43.589844 38.664062 55.4375 C 38.664062 67.28125 48.292969 76.90625 60.140625 76.90625 C 71.988281 76.90625 81.609375 67.28125 81.609375 55.4375 C 81.609375 43.589844 71.988281 33.960938 60.140625 33.960938 Z M 60.140625 33.960938 " fill-opacity="1" fill-rule="evenodd"/></g><path fill="#ffffff" d="M 49.195312 59.167969 C 49.671875 58.59375 50.402344 58.878906 51.109375 59.402344 L 53.816406 61.398438 L 57.359375 63.015625 C 57.746094 63.195312 57.714844 63.457031 57.234375 63.507812 C 56.628906 63.570312 56.332031 63.777344 56.03125 63.992188 C 55.78125 64.167969 55.742188 64.21875 55.488281 64.105469 L 52.753906 62.855469 L 49.332031 60.261719 C 48.941406 59.960938 48.941406 59.46875 49.195312 59.167969 Z M 49.195312 59.167969 " fill-opacity="1" fill-rule="nonzero"/><path fill="#ffffff" d="M 49.277344 61.601562 L 52.25 63.574219 L 55.105469 64.554688 C 55.363281 64.640625 55.511719 64.730469 55.414062 64.96875 C 55.28125 65.269531 55.230469 65.839844 55.304688 66.039062 C 55.371094 66.207031 55.1875 66.371094 54.976562 66.3125 L 51.164062 65.308594 C 50.515625 64.851562 47.789062 62.6875 47.789062 62.6875 C 47.429688 62.398438 47.347656 61.992188 47.554688 61.726562 C 47.957031 61.222656 48.558594 61.128906 49.277344 61.601562 Z M 49.277344 61.601562 " fill-opacity="1" fill-rule="nonzero"/><path fill="#ffffff" d="M 56.945312 60.039062 L 60.191406 62.320312 L 60.667969 62.558594 C 60.96875 62.714844 60.90625 62.992188 60.363281 63.109375 L 59.046875 63.261719 C 58.570312 63.316406 58.371094 63.136719 58.03125 62.847656 L 55.511719 60.726562 C 54.75 60.082031 55.933594 59.328125 56.945312 60.039062 Z M 56.945312 60.039062 " fill-opacity="1" fill-rule="nonzero"/><path fill="#ffffff" d="M 56.613281 45.46875 C 56.183594 47.085938 55.511719 48.546875 55.355469 51.488281 C 55.257812 53.320312 55.765625 54.917969 56.671875 56.066406 C 56.914062 56.375 57.199219 56.652344 57.515625 56.894531 C 56.6875 56.574219 56.011719 56.105469 55.496094 55.523438 C 54.511719 54.410156 54.046875 52.863281 54.230469 51.097656 C 54.390625 49.527344 55.230469 47.496094 56.613281 45.46875 Z M 60.125 38.648438 C 59.980469 38.652344 59.847656 38.726562 59.769531 38.84375 L 55.679688 44.828125 C 54.214844 46.964844 53.292969 49.128906 53.101562 50.984375 C 52.890625 53.019531 53.425781 54.902344 54.644531 56.273438 C 55.863281 57.648438 57.75 58.480469 60.140625 58.480469 C 62.523438 58.480469 64.414062 57.648438 65.628906 56.273438 C 66.847656 54.902344 67.382812 53.019531 67.171875 50.984375 C 66.980469 49.128906 66.058594 46.964844 64.59375 44.828125 L 60.511719 38.84375 C 60.421875 38.714844 60.277344 38.640625 60.125 38.648438 Z M 60.125 38.648438 " fill-opacity="1" fill-rule="nonzero"/><g fill="#eabb9b" fill-opacity="1"><g transform="translate(122.110301, 87.032488)"><g><path d="M 17.804688 0 L 12.195312 -37.558594 L 11.867188 -40.078125 L 11.382812 -40.078125 L 11.382812 0 L 3.25 0 L 3.25 -59.75 L 13.980469 -59.75 L 19.183594 -32.4375 L 19.589844 -29.265625 L 19.753906 -29.265625 L 20.160156 -32.4375 L 25.363281 -59.75 L 36.09375 -59.75 L 36.09375 0 L 27.964844 0 L 27.964844 -40.078125 L 27.476562 -40.078125 L 27.152344 -37.558594 L 21.542969 0 Z M 17.804688 0 "/></g></g></g><g fill="#eabb9b" fill-opacity="1"><g transform="translate(161.450708, 87.032488)"><g><path d="M 13.574219 -40.648438 L 13.820312 -40.078125 L 13.980469 -40.078125 L 14.226562 -40.648438 L 18.617188 -59.75 L 27.234375 -59.75 L 18.289062 -25.445312 L 18.289062 0 L 9.511719 0 L 9.511719 -25.445312 L 0.570312 -59.75 L 9.1875 -59.75 Z M 13.574219 -40.648438 "/></g></g></g><g fill="#eabb9b" fill-opacity="1"><g transform="translate(189.249103, 87.032488)"><g><path d="M 3.25 -59.75 L 12.03125 -59.75 C 15.851562 -59.75 19.671875 -58.773438 22.597656 -56.011719 C 25.527344 -53.246094 27.476562 -48.695312 27.476562 -41.867188 C 27.476562 -35.039062 25.527344 -30.566406 22.597656 -27.800781 C 19.671875 -25.039062 15.851562 -23.898438 12.03125 -23.898438 L 12.03125 0 L 3.25 0 Z M 12.03125 -32.84375 C 14.714844 -32.84375 16.421875 -33.332031 17.398438 -34.710938 C 18.371094 -36.011719 18.617188 -38.207031 18.617188 -41.539062 C 18.617188 -44.875 18.371094 -47.230469 17.398438 -48.695312 C 16.421875 -50.15625 14.714844 -50.808594 12.03125 -50.808594 Z M 12.03125 -32.84375 "/></g></g></g><g fill="#eabb9b" fill-opacity="1"><g transform="translate(217.860311, 87.032488)"><g><path d="M 17.804688 -43.734375 C 17.804688 -45.6875 17.722656 -47.882812 17.152344 -49.589844 C 16.582031 -51.214844 15.691406 -52.351562 14.308594 -52.351562 C 12.03125 -52.269531 11.300781 -49.914062 11.300781 -46.417969 C 11.300781 -44.386719 12.195312 -42.273438 13.496094 -39.996094 C 14.796875 -37.71875 16.503906 -35.363281 18.210938 -32.84375 C 20.242188 -29.835938 22.273438 -26.746094 23.820312 -23.738281 C 25.363281 -20.730469 26.421875 -17.640625 26.421875 -14.390625 C 26.421875 -10.40625 25.769531 -6.667969 23.898438 -3.902344 C 22.03125 -1.136719 19.023438 0.648438 14.226562 0.648438 C 8.617188 0.648438 5.445312 -1.464844 3.65625 -4.714844 C 1.871094 -7.964844 1.464844 -12.273438 1.464844 -16.746094 L 10.082031 -17.558594 C 10.082031 -15.039062 10.160156 -12.519531 10.8125 -10.648438 C 11.382812 -8.699219 12.355469 -7.398438 14.226562 -7.398438 C 16.828125 -7.398438 17.804688 -10.160156 17.804688 -13.980469 C 17.804688 -15.933594 16.828125 -18.210938 15.527344 -20.566406 C 14.796875 -21.707031 14.0625 -22.925781 13.25 -24.144531 C 11.542969 -26.582031 9.675781 -29.347656 7.722656 -32.355469 C 5.773438 -35.363281 4.308594 -38.453125 3.414062 -41.621094 C 2.925781 -43.167969 2.683594 -44.792969 2.683594 -46.417969 C 2.683594 -49.671875 3.414062 -53.164062 5.285156 -55.847656 C 7.152344 -58.449219 10 -60.320312 14.144531 -60.402344 C 19.429688 -60.480469 22.519531 -58.289062 24.226562 -55.117188 C 25.933594 -51.863281 26.421875 -47.882812 26.421875 -44.546875 Z M 17.804688 -43.734375 "/></g></g></g><g fill="#eabb9b" fill-opacity="1"><g transform="translate(245.739979, 87.032488)"><g><path d="M 26.09375 -12.273438 C 26.015625 -9.835938 25.527344 -7.640625 24.632812 -5.773438 C 23.898438 -4.144531 22.761719 -2.601562 21.136719 -1.382812 C 19.511719 -0.0820312 17.316406 0.648438 14.390625 0.648438 C 11.460938 0.648438 9.1875 -0.0820312 7.558594 -1.382812 C 5.933594 -2.601562 4.878906 -4.144531 4.144531 -5.773438 C 3.25 -7.640625 2.765625 -9.835938 2.683594 -12.273438 L 2.683594 -47.476562 C 2.765625 -49.832031 3.25 -52.027344 4.144531 -53.898438 C 4.878906 -55.523438 5.933594 -57.148438 7.558594 -58.367188 C 9.1875 -59.585938 11.460938 -60.402344 14.390625 -60.402344 C 17.316406 -60.402344 19.511719 -59.585938 21.136719 -58.367188 C 22.761719 -57.148438 23.898438 -55.523438 24.632812 -53.898438 C 25.527344 -52.027344 26.015625 -49.832031 26.09375 -47.476562 Z M 17.316406 -47.476562 C 17.316406 -49.101562 16.992188 -50.238281 16.175781 -51.214844 C 15.769531 -51.621094 15.121094 -51.863281 14.390625 -51.863281 C 12.84375 -51.863281 12.113281 -50.726562 11.789062 -49.671875 C 11.542969 -49.019531 11.460938 -48.289062 11.460938 -47.476562 L 11.460938 -12.273438 C 11.460938 -10.566406 11.867188 -9.429688 12.683594 -8.535156 C 13.089844 -8.128906 13.65625 -7.886719 14.390625 -7.886719 C 15.933594 -7.886719 16.664062 -8.859375 16.992188 -10.082031 C 17.234375 -10.648438 17.316406 -11.382812 17.316406 -12.273438 Z M 17.316406 -47.476562 "/></g></g></g><g fill="#eabb9b" fill-opacity="1"><g transform="translate(274.513754, 87.032488)"><g><path d="M 18.941406 0 L 14.390625 -25.199219 L 12.03125 -25.199219 L 12.03125 0 L 3.25 0 L 3.25 -59.75 L 12.03125 -59.75 C 22.519531 -59.75 26.988281 -53.816406 26.988281 -42.515625 C 26.988281 -36.582031 25.445312 -31.214844 22.113281 -28.941406 L 27.722656 0 Z M 12.03125 -33.332031 C 13.25 -33.332031 14.875 -33.492188 16.175781 -34.632812 C 17.476562 -35.769531 18.535156 -37.964844 18.535156 -42.191406 C 18.535156 -46.417969 17.476562 -48.695312 16.175781 -49.832031 C 14.875 -50.972656 13.25 -51.050781 12.03125 -51.050781 Z M 12.03125 -33.332031 "/></g></g></g><g fill="#ffffff" fill-opacity="1"><g transform="translate(303.860447, 87.032488)"><g><path d="M 0.8125 0 L 9.835938 -59.75 L 20.566406 -59.75 L 29.589844 0 L 21.054688 0 L 19.429688 -12.195312 L 10.972656 -12.195312 L 9.347656 0 Z M 15.691406 -40.320312 L 15.445312 -41.867188 L 14.957031 -41.867188 L 14.714844 -40.320312 L 12.195312 -21.460938 L 18.210938 -21.460938 Z M 15.691406 -40.320312 "/></g></g></g><g fill="#ffffff" fill-opacity="1"><g transform="translate(334.259861, 87.032488)"><g><path d="M 3.25 -59.75 L 12.03125 -59.75 L 12.03125 0 L 3.25 0 Z M 3.25 -59.75 "/></g></g></g></svg>